<svg width="24" height="24" viewBox="0 0 24 24" fill="none" xmlns="http://www.w3.org/2000/svg">
<path d="M16.8218 5.1344C16.0887 4.29394 15.648 3.19805 15.648 2H14.7293M16.8218 5.1344C17.4899 5.90063 18.3945 6.45788 19.4245 6.67608C19.7446 6.74574 20.0787 6.78293 20.4267 6.78293V10.2191C18.645 10.2191 16.9933 9.64801 15.6478 8.68211V15.6707C15.6478 19.1627 12.8083 22 9.32392 22C7.50049 22 5.8534 21.2198 4.69812 19.98C3.64492 18.847 3 17.3331 3 15.6707C3 12.2298 5.75598 9.42509 9.17079 9.35079M16.8218 5.1344C16.8039 5.12276 16.7861 5.11101 16.7684 5.09914M6.98556 17.3517C6.64223 16.8781 6.43808 16.2977 6.43808 15.6661C6.43808 14.0734 7.73255 12.7778 9.324 12.7778C9.62093 12.7778 9.90856 12.8288 10.1777 12.9124V9.40192C9.89927 9.36473 9.61628 9.34149 9.324 9.34149C9.27294 9.34149 8.86183 9.36884 8.81079 9.36884M14.7245 2H12.2098L12.2051 15.7775C12.1495 17.3192 10.8782 18.5591 9.32392 18.5591C8.35884 18.5591 7.50977 18.0808 6.98086 17.3564" stroke="#434343" stroke-width="0.75" stroke-linejoin="round"/>
</svg>
