<svg width="24" height="24" viewBox="0 0 24 24" fill="none" xmlns="http://www.w3.org/2000/svg">
<path d="M11.4587 13.761L5.86512 20.2433C5.71692 20.4132 5.50892 20.5002 5.29972 20.5002C5.12472 20.5002 4.94902 20.4393 4.80692 20.3153C4.49482 20.0429 4.46262 19.5692 4.73502 19.2571L10.5066 12.5709L11.4587 13.761ZM13.4935 11.4294L19.2651 4.74317C19.5375 4.43107 19.5053 3.95737 19.1932 3.68497C18.8812 3.41257 18.4072 3.44477 18.135 3.75687L12.5414 10.2392L13.4935 11.4294Z" fill="#434343"/>
<path d="M20.05 20.5H16.15C15.9221 20.5 15.7067 20.3964 15.5644 20.2185L3.36442 4.7185C3.18432 4.4934 3.14922 4.1849 3.27412 3.9251C3.39902 3.6653 3.66172 3.5 3.95002 3.5H7.85002C8.07792 3.5 8.29332 3.6036 8.43562 3.7815L20.6356 19.2815C20.8157 19.5066 20.8508 19.8151 20.7259 20.0749C20.601 20.3347 20.3383 20.5 20.05 20.5ZM16.5105 19H18.4895L7.48952 5H5.51052L16.5105 19Z" fill="#434343"/>
</svg>
