<svg width="31" height="24" viewBox="0 0 31 24" fill="none" xmlns="http://www.w3.org/2000/svg">
<g clip-path="url(#clip0_153_1551)">
<path d="M26.7837 6.78097C27.49 7.52281 27.5532 9.60204 27.9538 10.5946C28.0486 10.7514 28.3332 10.4484 28.4702 10.3961C29.5665 9.99908 31.5797 11.1484 30.8313 12.4231C30.4203 13.1232 29.2503 13.2694 28.5546 12.9455C28.5335 13.7501 29.187 14.4501 29.3135 15.2128C29.4821 16.2577 28.7338 17.8876 28.4175 18.9638C28.1013 20.04 28.0381 20.4266 27.627 21.3878C27.2581 22.2551 27.511 24.0209 26.067 23.9895C25.7191 23.9895 23.8429 23.5611 23.5794 23.3939C22.7045 22.8402 23.1578 21.8058 23.337 21.0117L11.6369 18.5772C11.5209 19.2773 11.4577 20.3848 10.6144 20.5833C9.77116 20.7818 8.15845 20.3117 7.73682 20.0609C6.67222 19.4027 7.56817 18.0862 7.59979 17.2085C7.64196 15.9024 7.81061 15.1188 7.9898 13.8336C8.16899 12.5485 8.02142 12.3291 8.19007 11.6813C8.48521 10.5737 9.59197 10.0304 10.2139 9.14231C6.95682 8.51541 8.3798 5.2764 11.1941 6.68693L11.679 7.2198L13.8293 4.49277C14.915 3.57331 17.5923 4.18976 18.931 4.43008C20.2696 4.67039 22.3461 5.08833 23.9167 5.52716C24.7494 5.75703 26.204 6.16451 26.7943 6.79142L26.7837 6.78097ZM26.8154 10.8245C26.457 9.94684 26.4043 8.76617 26.0881 7.9094C25.7718 7.05263 24.7178 6.98994 24.117 6.81231C22.0721 6.18541 18.4461 5.35999 16.338 5.19281C14.2299 5.02564 14.9677 5.05698 14.525 5.49581C13.8926 6.11227 13.4182 7.10487 12.7436 7.73178L26.8154 10.8245ZM9.58143 7.68998C9.89765 7.74222 10.2244 8.12881 10.5301 7.80491C10.5933 7.49146 9.89765 7.50191 9.69738 7.53326C9.49711 7.5646 9.46549 7.57505 9.58143 7.68998ZM8.7171 16.7801C9.07548 16.7905 9.53927 16.9891 9.86603 17.0204C10.4563 17.0622 11.1204 16.2681 11.679 16.0174C12.2377 15.7666 12.3852 15.7562 12.7015 15.7666C16.0639 16.6025 19.711 17.01 23.0313 17.9085C23.6637 18.0862 24.0221 18.2742 24.4332 18.7862C24.8443 19.2982 25.2132 20.1654 25.3818 20.2699C25.5505 20.3744 26.6046 20.552 26.6889 20.552C26.7732 20.552 26.847 20.5206 26.8681 20.4161C27.0578 19.4862 27.2897 18.5668 27.5532 17.6473C27.7219 17.0518 28.1962 16.1427 28.1435 15.5681C28.0908 14.9934 27.5743 14.074 27.4056 13.5515C27.237 13.0291 27.1316 12.1828 26.984 12.0888L11.9847 8.94379C11.7423 8.97514 11.1731 9.88415 10.9517 10.1245C10.5828 10.5319 9.54981 11.3574 9.3917 11.7858C9.18089 12.3604 9.25467 13.2694 9.15981 13.9068C9.10711 14.2829 8.61169 16.6547 8.70656 16.7697L8.7171 16.7801ZM28.7865 11.8484C29.0816 11.8693 29.4821 12.0679 29.7351 11.8067C29.577 11.6186 28.9867 11.3887 28.8181 11.6081L28.7865 11.8484ZM23.727 19.9146C23.4634 19.1414 22.9153 19.0996 22.2302 18.9325C19.0996 18.1802 15.8953 17.6996 12.7647 16.9368C12.3536 16.8741 12.069 17.2085 11.7106 17.3234L23.727 19.9042V19.9146ZM10.5301 18.3578L8.63278 17.9608L8.40088 19.0161C8.44304 19.1728 10.0136 19.434 10.2877 19.4549L10.5301 18.3578ZM26.341 21.6491L24.4437 21.3356L24.2962 22.4222L26.1091 22.8193L26.3516 21.6386L26.341 21.6491Z" fill="#27A14A"/>
<path d="M10.1081 0.115068C10.2873 0.261346 10.3505 0.647937 10.224 0.856905C9.33863 2.03758 8.67457 3.39587 7.81023 4.57654C6.9459 5.75721 6.2713 3.93919 5.47021 3.39587C5.42805 3.92874 5.96562 5.07806 5.8286 5.5169C5.58616 6.34232 3.80479 5.68407 3.17236 5.67362C3.56236 6.1647 5.11183 6.65577 5.14345 7.28268C5.17508 7.83644 3.72047 8.50514 3.40425 8.96487C4.04723 9.01711 5.94454 8.03496 6.00779 9.16339L5.34373 14.0637C5.03805 14.7219 4.18426 14.5025 4.18426 13.7816C4.18426 12.7576 4.59534 11.3994 4.66913 10.3336C4.74291 9.26788 4.66913 10.0411 4.66913 9.90523L0.89558 10.7516C0.305304 10.762 0.0417886 10.2187 0.358008 9.7485L3.48858 7.36627C2.39235 6.49905 1.03261 5.91394 0.0312479 4.97358C-0.0636178 4.62878 0.0523292 4.40936 0.336926 4.21084C0.874498 4.04367 4.32129 4.78551 4.52156 4.63923L3.65723 0.82556C3.72047 0.271794 4.28966 -0.041658 4.72183 0.397175L7.09347 3.45856L9.22268 0.250897C9.38079 -0.0312096 9.86566 -0.0730033 10.1081 0.115068Z" fill="#27A14A"/>
<path d="M11.4577 10.1454C13.0071 9.86331 14.272 11.4306 14.3985 12.8307C14.4617 13.5411 14.4512 14.3561 13.5025 14.2725C12.5539 14.1889 10.7514 13.2277 10.3825 12.6635C9.87657 11.8903 10.4985 10.323 11.4577 10.1454ZM13.218 12.9456C13.1231 12.3082 12.6382 11.3574 11.9004 11.3052C11.4998 11.2738 11.2679 11.7963 11.5104 12.0888C11.7528 12.3814 13.1336 13.0396 13.218 12.9456Z" fill="#27A14A"/>
<path d="M25.2132 13.1232C26.0564 12.9874 27.1 13.1232 27.4267 14.0218C27.6375 14.6069 27.5532 15.6935 26.9946 16.0697C26.4359 16.4458 24.6651 16.5398 23.9378 16.4667C21.408 16.195 23.8324 13.3426 25.2132 13.1232ZM24.2013 15.2965H25.5083C25.54 15.2965 26.0459 15.2024 26.1092 15.1815C26.4781 15.0666 26.4254 14.377 26.1302 14.2934C25.4029 14.0845 24.5386 14.6696 24.2118 15.2965H24.2013Z" fill="#27A14A"/>
<path d="M15.0099 12.7262C15.2101 12.6844 15.3999 12.7053 15.6001 12.7262C17.7504 12.956 20.1326 13.865 22.3251 14.1367C23.1894 14.4292 22.8626 15.5159 21.9561 15.286C19.8375 14.6591 17.3393 14.5128 15.2523 13.865C14.9888 13.7814 14.7253 13.7501 14.6515 13.4366C14.5777 13.1232 14.6726 12.8097 15.0099 12.7262Z" fill="#27A14A"/>
<path d="M15.4842 14.5338C15.6528 14.4815 15.832 14.5233 16.0007 14.5338C17.6766 14.7114 19.5318 15.3905 21.2183 15.6309C21.914 15.8503 21.7453 16.822 21.0075 16.7906C19.3421 16.2787 17.2023 16.2055 15.5896 15.6518C14.9466 15.4323 14.9993 14.6801 15.4842 14.5338Z" fill="#27A14A"/>
</g>
<defs>
<clipPath id="clip0_153_1551">
<rect width="31" height="24" fill="white"/>
</clipPath>
</defs>
</svg>
