<svg width="100" height="40" viewBox="0 0 100 40" fill="none" xmlns="http://www.w3.org/2000/svg">
<path d="M14.1039 0C14.9514 0.214861 15.8228 0.334229 16.6703 0.596838C17.4343 0.835573 18.3057 1.21755 18.998 1.61146C19.6903 2.00537 21.266 3.10355 21.266 3.40197C21.0034 3.77201 19.3919 5.72964 19.0577 5.69383C15.8467 2.81707 10.9288 2.53059 7.4313 5.07312C2.17913 8.90482 2.47755 17.2844 8.09975 20.6148C13.1609 23.6228 20.7885 21.3787 21.1466 14.909H12.9103V11.5667H24.4889C24.9186 14.8851 24.3695 18.502 22.1612 21.1161C15.596 28.8989 2.70435 25.1269 0.364748 15.47C0.221507 14.8851 0.185697 14.2883 0.0185822 13.7273C0.0663291 13.0707 -0.0411015 12.3426 0.0185822 11.698C0.484115 6.58909 4.38743 1.89794 9.30536 0.51328L11.836 0H14.1039Z" fill="#3174F1"/>
<path d="M99.6784 14.9204V15.0397L88.8638 19.6951C90.2365 22.548 93.6146 22.9657 95.9781 20.9484C96.3958 20.5903 96.6584 19.8741 97.1598 20.1129C97.6611 20.3516 98.9742 21.3065 99.201 21.5333C99.4278 21.7601 99.38 21.6766 99.4278 21.7959C96.8375 25.9738 90.2484 26.4274 86.9658 22.7986C83.0386 18.4537 84.7814 10.4322 90.8214 9.22655C95.1902 8.35516 98.258 11.0171 99.6784 14.9204ZM95.4886 13.9535C95.5603 12.7956 93.531 12.0436 92.5761 12.0436C90.7975 12.0436 88.8279 13.6551 88.3743 15.374C88.3027 15.6485 87.9804 16.9854 88.4698 16.9019L95.4886 13.9535Z" fill="#E63125"/>
<path d="M15.1782 39.9881C11.1794 39.1287 11.9195 33.1006 16.1809 33.6736C17.8878 33.9004 18.6399 35.5476 18.6399 37.1233H14.4023C13.8652 37.1233 14.4859 38.3767 15.1543 38.6393C16.2286 39.0571 16.6942 38.4363 17.661 38.3408L18.1027 39.2838L16.3599 40.0001H15.1663L15.1782 39.9881ZM17.0881 36.1684C16.9926 34.2943 14.3904 34.4256 14.1039 36.1684H17.0881Z" fill="#434343"/>
<path d="M31.651 39.9878C30.517 39.5819 29.5501 39.0686 29.2278 37.8153C27.9029 32.8018 35.4469 31.9782 35.1126 37.1229H30.8751C30.326 37.1229 31.078 38.8299 32.4269 38.7941C32.9402 38.7941 33.716 38.3047 33.9906 38.3166C34.2651 38.3286 34.862 39.0925 34.5277 39.3312L32.8566 39.9878H31.6629H31.651ZM30.5767 36.168H33.5012L33.6683 35.8815C33.0595 34.2581 30.9825 34.5446 30.5767 36.168Z" fill="#434343"/>
<path d="M48.7206 39.988H47.6463C47.0494 39.6777 46.2855 39.6657 45.7841 39.1524C45.6051 38.8182 46.0468 38.4124 46.2139 38.1259C46.4168 37.9946 47.3837 38.663 47.7537 38.7347C48.3386 38.854 49.7233 38.8182 49.4129 37.911C49.1026 37.0038 46.4168 37.5529 45.9632 36.1086C45.0918 33.3751 49.2458 33.0528 50.7379 34.4255L50.0694 35.3088C49.3771 34.9985 48.5893 34.521 47.8134 34.8433C47.0375 35.1656 47.2285 35.3446 47.4553 35.6908C47.6821 36.037 49.6516 36.2638 50.1411 36.586C51.2631 37.3023 51.1079 39.1524 49.8546 39.6299L48.7206 39.988Z" fill="#434343"/>
<path d="M77.118 9.54912V24.6491C77.0106 29.7819 73.6802 33.0526 68.4639 32.5751C66.0169 32.3603 63.1043 30.2833 62.4239 27.884L65.229 26.7261C66.4227 28.7434 67.7119 29.6625 70.135 29.4835C73.3341 29.2448 74.0861 26.2248 73.7638 23.5151C72.9999 23.8255 72.5701 24.4223 71.7346 24.7685C66.7211 26.8335 61.6003 22.1782 61.6122 17.129C61.6361 11.8887 67.6045 6.89916 72.4866 9.9311C77.3687 12.963 73.6564 10.9577 73.7638 10.8622L73.8832 9.54912H77.1061H77.118ZM68.9772 12.211C63.7131 12.9272 63.8444 21.7246 69.204 22.1901C75.8289 22.7631 75.6498 11.2919 68.9772 12.211Z" fill="#3174F1"/>
<path d="M60.0484 17.1647C60.0484 21.6768 56.3957 25.3295 51.8837 25.3295C47.3716 25.3295 43.7189 21.6768 43.7189 17.1647C43.7189 12.6526 47.3716 9 51.8837 9C56.3957 9 60.0484 12.6526 60.0484 17.1647ZM51.3107 12.211C44.6261 13.0466 46.9657 24.4223 53.5309 21.832C58.5682 19.8386 56.8493 11.5187 51.3107 12.211Z" fill="#F6AD01"/>
<path d="M42.1911 17.1767C42.1911 21.6769 38.5384 25.3295 34.0383 25.3295C29.5381 25.3295 25.8855 21.6769 25.8855 17.1767C25.8855 12.6766 29.5381 9.02393 34.0383 9.02393C38.5384 9.02393 42.1911 12.6766 42.1911 17.1767ZM33.4176 12.211C27.6402 12.8795 28.2967 22.5841 34.3367 22.2021C40.4722 21.8201 39.9947 11.4471 33.4176 12.211Z" fill="#E63125"/>
<path d="M83.2057 0.835205H79.7441V24.8281H83.2057V0.835205Z" fill="#249A41"/>
<path d="M5.27069 31.5725C5.46168 31.274 5.73622 31.5128 6.04658 31.5128C7.29994 31.5366 9.35306 31.286 10.4393 31.7754C12.385 32.6468 12.3492 35.9532 10.1886 36.5381C9.93796 36.9321 11.6807 39.1762 11.8478 39.7491H9.81859L8.3265 36.8843L6.95377 36.7649V39.7491H5.28263V31.5725H5.27069ZM6.94183 35.3325H9.2695C9.90214 35.3325 10.4393 33.7808 9.68728 33.2436C9.59179 33.172 8.98302 32.9452 8.9114 32.9452H6.94183V35.3325Z" fill="#434343"/>
<path d="M38.3355 37.6006C38.6101 37.6484 38.5265 37.5887 38.5982 37.4455C38.8966 36.9083 39.6247 33.9122 39.7799 33.7928H41.1884L42.5731 37.72L43.7668 33.9003C43.9578 33.7093 45.1992 33.6973 45.2469 33.9599L43.4564 39.7373H41.8211C41.4152 38.5317 41.1049 37.2664 40.6393 36.0727C40.1738 34.8791 40.699 35.7624 40.4364 35.8101L39.2427 39.6299L37.6313 39.6896C37.3806 39.5344 35.9721 34.7716 35.805 34.1032C35.6378 33.4347 35.6498 33.9719 35.8288 33.8286C36.2108 33.757 37.0106 33.6496 37.2732 33.948C37.6432 34.3777 38.061 36.9202 38.3355 37.6006Z" fill="#434343"/>
<path d="M67.3299 39.7491L65.3365 38.818L63.3908 39.6894L63.1521 39.5581L63.4385 37.4572L62.0778 35.8577C62.1374 35.5951 63.7967 35.5234 64.2144 35.1295C64.6322 34.7356 65.1097 33.4106 65.2291 33.4106C65.7782 33.8881 65.8498 34.8669 66.4824 35.2489C67.1151 35.6309 67.9387 35.428 68.4997 35.8457L67.0912 37.4214L67.306 39.7252L67.3299 39.7491Z" fill="#F6AD01"/>
<path d="M83.4445 39.7494L81.451 38.8183L79.2666 39.7494L79.577 37.5411L78.1923 35.8818C78.252 35.6192 79.9112 35.5476 80.329 35.1537C80.6632 34.8434 81.0333 33.8645 81.2959 33.4348C81.9166 33.8407 81.9763 34.8672 82.6089 35.285C82.9551 35.5118 84.6262 35.6551 84.6262 35.8818L83.2177 37.4575L83.4326 39.7613L83.4445 39.7494Z" fill="#F6AD01"/>
<path d="M91.7525 36.9559C91.6331 37.0991 91.2869 37.3498 91.2511 37.5408L91.5615 39.6297L89.3771 38.818L87.3836 39.7491L87.5985 37.4453L86.1899 35.8696C86.1899 35.6428 87.8611 35.4996 88.2073 35.2728C88.7922 34.8908 88.9473 33.8762 89.4606 33.4226C89.5919 33.4226 90.1768 34.8789 90.4872 35.1415C91.0601 35.6309 92.0389 35.4399 92.6238 35.8696C92.6477 35.989 91.8957 36.7649 91.7405 36.9559H91.7525Z" fill="#F6AD01"/>
<path d="M75.4468 39.6297L73.2624 38.818L71.2689 39.7491L71.4838 37.4453L70.0753 35.8696C70.0753 35.6428 71.7464 35.4996 72.0926 35.2728C72.6775 34.8908 72.8088 33.8046 73.4056 33.4226C73.6682 33.8643 74.0383 34.9266 74.4202 35.2131C74.8141 35.5115 76.4495 35.607 76.5092 35.8696L75.1245 37.5288L75.4349 39.6178L75.4468 39.6297Z" fill="#F6AD01"/>
<path d="M55.1664 39.7491L55.3813 37.4453L53.9727 35.8696C53.9727 35.6428 55.6439 35.4996 55.99 35.2728C56.5749 34.8908 56.7062 33.8046 57.3031 33.4226C57.5537 33.8643 58.0073 34.9983 58.3774 35.2728C58.7474 35.5473 60.335 35.5951 60.4066 35.8696L59.01 37.5527L59.3323 39.57L59.0936 39.7013L57.1479 38.83L55.1545 39.761L55.1664 39.7491Z" fill="#F6AD01"/>
<path d="M22.3403 37.8395L23.8324 33.9004L25.4438 33.781L22.9968 39.7613L21.3973 39.7374L19.1173 33.781C19.5471 33.8407 20.3826 33.6139 20.6811 33.9481C20.9795 34.2823 22.1015 38.0185 22.3403 37.8395Z" fill="#434343"/>
<path d="M27.8312 33.7805H26.2794V39.7489H27.8312V33.7805Z" fill="#434343"/>
<path d="M27.0553 32.9693C27.5366 32.9693 27.9267 32.5792 27.9267 32.0979C27.9267 31.6167 27.5366 31.2266 27.0553 31.2266C26.5741 31.2266 26.1839 31.6167 26.1839 32.0979C26.1839 32.5792 26.5741 32.9693 27.0553 32.9693Z" fill="#434343"/>
</svg>
