<svg width="266" height="34" viewBox="0 0 266 34" fill="none" xmlns="http://www.w3.org/2000/svg">
<path d="M260.865 25.4538V20.0152C260.237 19.7193 259.128 19.2013 258.5 18.8683L253.254 24.3069C254.03 23.8999 255.027 23.4559 256.653 23.4559C258.279 23.4559 259.978 24.6398 260.791 25.5277H260.865V25.4538ZM265.963 23.3079C263.34 24.4548 259.535 26.5637 257.688 28.2285C256.727 27.3036 255.471 26.4527 253.845 26.4527C252.22 26.4527 251.629 27.0076 251.629 27.5256C251.629 28.0435 252.257 27.7845 252.257 28.2655C252.257 28.7465 252.072 28.7465 251.776 28.7465C251.481 28.7465 251.074 28.2285 251.074 27.5626C251.074 26.3417 251.629 25.2688 253.55 23.2709L256.949 19.7563C255.545 19.0533 253.513 18.1654 252.368 17.6474V17.4625C252.7 17.3515 252.959 17.0555 252.959 16.6485V13.7258C252.959 13.3928 252.774 12.9119 252.368 12.7639V12.6159C255.212 11.617 258.833 9.58215 260.902 8.10228C261.382 8.62024 262.564 9.69314 263.894 9.69314C265.224 9.69314 265.261 9.17519 265.261 8.76823C265.261 8.36126 264.855 8.43526 264.855 8.10228C264.855 7.76931 265.003 7.69532 265.224 7.69532C265.557 7.69532 265.815 7.99129 265.815 8.62024C265.815 10.4331 264.042 12.8009 261.308 12.8009C258.574 12.8009 258.389 11.9869 257.54 10.803H257.466V15.3906L259.978 16.6115L261.086 15.4276C262.269 16.1676 264.707 17.4995 266 18.0544V18.1654C265.741 18.2764 265.409 18.5724 265.409 19.1273V22.346C265.409 22.79 265.741 23.086 266 23.197V23.3449M247.011 16.4265C246.05 15.0947 244.24 12.5789 243.205 10.988H243.094V18.8313L247.011 16.3896V16.4265ZM251.111 14.3547L243.094 19.3863V22.827C244.092 23.2709 246.53 24.4548 247.602 25.1578L249.338 23.3449C249.818 22.864 249.671 22.0131 250.336 22.0131C251.001 22.0131 250.742 22.161 250.742 22.42C250.742 22.679 250.557 22.864 250.409 23.012L245.163 28.2285C243.353 27.0816 239.732 25.3798 237.959 24.6398V24.4918C238.255 24.3808 238.55 24.1959 238.55 23.4559V13.9478C238.55 13.1708 238.255 12.8749 237.959 12.8379V12.6899C240.656 11.802 244.794 9.61915 246.752 8.21327C248.119 10.2481 249.818 12.7639 251.111 14.3917V14.3547ZM195.362 24.3808V7.17737C195.178 7.17737 194.808 7.17737 194.586 7.17737C193.441 7.17737 191.409 6.73341 190.079 6.36344C186.163 7.06638 181.582 10.3961 181.582 16.6115C181.582 22.827 185.387 25.3798 190.781 25.3798C196.175 25.3798 194.217 25.0098 195.362 24.3439V24.3808ZM200.017 2.58977C200.017 5.32753 197.948 6.7704 195.695 7.14037V24.1959C198.429 22.679 199.315 20.9771 199.315 20.2002C199.315 19.4233 198.983 19.7933 198.983 19.4973C198.983 19.2013 199.167 19.0533 199.389 19.0533C199.685 19.0533 199.833 19.3123 199.833 19.8302C199.833 23.7889 196.027 29.1534 187.973 29.1534C179.919 29.1534 176.816 24.3808 176.816 18.2394C176.816 9.50816 184.131 6.47443 189.193 6.17845C187.345 5.77149 184.353 5.14255 181.877 5.14255C179.402 5.14255 176.631 6.8444 176.631 8.36126C176.631 9.87813 177.112 9.0272 177.112 9.43417C177.112 9.84113 177.001 9.95212 176.705 9.95212C176.225 9.95212 176.151 9.50816 176.151 9.13819C176.151 5.80849 178.183 1.03591 183.171 1.03591C188.158 1.03591 192.074 2.84875 196.027 2.84875C199.98 2.84875 199.426 1.92383 199.315 0.406964L199.759 0.591948C199.869 0.813928 199.98 1.59086 199.98 2.62677L200.017 2.58977ZM163.073 25.4538V20.0152C162.445 19.7193 161.336 19.2013 160.708 18.8683L155.462 24.3069C156.238 23.8999 157.236 23.4559 158.861 23.4559C160.487 23.4559 162.186 24.6398 162.999 25.5277H163.073V25.4538ZM168.171 23.3079C165.548 24.4548 161.743 26.5637 159.896 28.2285C158.935 27.3036 157.679 26.4527 156.053 26.4527C154.428 26.4527 153.837 27.0076 153.837 27.5256C153.837 28.0435 154.465 27.7845 154.465 28.2655C154.465 28.7465 154.28 28.7465 153.984 28.7465C153.689 28.7465 153.282 28.2285 153.282 27.5626C153.282 26.3417 153.837 25.2688 155.758 23.2709L159.157 19.7563C157.753 19.0533 155.721 18.1654 154.576 17.6474V17.4625C154.908 17.3515 155.167 17.0555 155.167 16.6485V13.7258C155.167 13.3928 154.982 12.9119 154.576 12.7639V12.6159C157.42 11.617 161.041 9.58215 163.11 8.10228C163.59 8.62024 164.772 9.69314 166.102 9.69314C167.432 9.69314 167.469 9.17519 167.469 8.76823C167.469 8.36126 167.063 8.43526 167.063 8.10228C167.063 7.76931 167.211 7.69532 167.432 7.69532C167.765 7.69532 168.023 7.99129 168.023 8.62024C168.023 10.4331 166.25 12.8379 163.516 12.8379C160.782 12.8379 160.597 11.9499 159.748 10.766H159.674V15.3536L162.186 16.5745L163.294 15.3906C164.477 16.1306 166.915 17.4625 168.208 18.0174V18.1284C167.949 18.2394 167.617 18.5354 167.617 19.0903V22.309C167.617 22.753 167.949 23.049 168.208 23.16V23.3079M149.219 16.4265C148.258 15.0947 146.448 12.5789 145.413 10.988H145.302V18.8313L149.219 16.3896V16.4265ZM153.319 14.3547L145.302 19.3863V22.827C146.3 23.2709 148.701 24.4548 149.81 25.1578L151.546 23.3449C152.026 22.864 151.879 22.0131 152.544 22.0131C153.209 22.0131 152.95 22.161 152.95 22.42C152.95 22.679 152.765 22.864 152.617 23.012L147.371 28.2285C145.561 27.0816 141.941 25.3798 140.167 24.6398V24.4918C140.463 24.3808 140.758 24.1959 140.758 23.4559V13.9478C140.758 13.1708 140.463 12.8749 140.167 12.8379V12.6899C142.864 11.802 147.002 9.61915 148.96 8.21327C150.327 10.2481 152.026 12.7639 153.319 14.3917V14.3547ZM126.313 16.4265C125.352 15.0947 123.542 12.5789 122.508 10.988H122.397V18.8313L126.313 16.3896V16.4265ZM130.414 14.3547L122.397 19.3863V22.827C123.394 23.2709 125.796 24.4548 126.904 25.1578L128.641 23.3449C129.121 22.864 128.973 22.0131 129.638 22.0131C130.303 22.0131 130.044 22.161 130.044 22.42C130.044 22.679 129.86 22.864 129.712 23.012L124.466 28.2285C122.656 27.0816 119.035 25.3798 117.262 24.6398V24.4918C117.557 24.3808 117.853 24.1959 117.853 23.4559V13.9478C117.853 13.1708 117.557 12.8749 117.262 12.8379V12.6899C119.959 11.802 124.096 9.61915 126.054 8.21327C127.421 10.2481 129.121 12.7639 130.414 14.3917V14.3547ZM109.762 25.1578V14.2807C108.432 13.5408 106.289 12.0609 104.811 10.803H104.737V22.716C106.067 23.3449 108.395 24.7138 109.356 25.4538L109.725 25.1578H109.762ZM116.116 26.7116C116.006 31.0033 113.863 34 109.873 34C105.883 34 104.442 32.3721 101.597 32.3721C98.7525 32.3721 99.0111 32.9271 98.5678 33.482L98.383 33.3341C98.5678 30.2263 100.747 28.4875 103.555 28.4875C106.363 28.4875 108.949 30.4853 112.2 30.4853C115.451 30.4853 115.377 29.3754 115.599 28.2655V28.1915C115.119 28.4505 114.565 28.7835 113.715 28.7835C112.016 28.7835 110.205 27.5996 109.91 25.5277C109.097 26.0827 107.287 27.4886 106.511 28.1915C104.516 26.8966 101.339 25.3058 99.7869 24.6028V24.4548C100.119 24.3439 100.341 23.9369 100.341 23.5299V13.8368C100.341 13.2448 100.119 12.8379 99.75 12.7639V12.6159C102.632 11.58 106.326 9.61915 108.321 8.06529C110.057 9.43417 113.198 11.358 115.045 12.4309V12.6159C114.639 12.8009 114.454 13.0598 114.454 13.9848V24.4548C114.454 25.7867 114.565 26.7116 115.525 26.7116C116.486 26.7116 115.895 26.5637 116.042 26.4157L116.264 26.6376L116.116 26.7116ZM70.5639 17.0925L67.0911 6.40043L63.2858 17.0925H70.6008H70.5639ZM80.5758 24.2699L76.2903 28.2285C74.9972 27.3036 73.8889 26.5637 72.2633 25.5647V25.3798C72.6328 25.2318 72.8175 24.8618 72.8544 24.4178C72.8544 24.2329 72.8175 24.0109 72.7436 23.8259L71.4136 19.6823H62.3253L61.1061 23.123C62.9903 23.123 64.2464 23.4929 65.17 23.8629L65.8719 22.531L66.3153 22.753L63.3597 28.1915C62.1406 27.4886 60.7367 26.9336 59.148 26.9336C57.5594 26.9336 55.8969 27.4516 55.2319 28.0805C55.0842 28.1915 54.8625 28.1545 54.9733 27.8585C55.7122 25.2318 57.7442 23.2709 60.6258 23.086L66.9064 5.6235C66.1675 3.47769 65.3178 2.99674 63.7292 2.99674C62.1406 2.99674 60.7736 3.66268 60.7736 5.51251C60.7736 7.36235 61.5864 6.28944 61.5864 6.91839C61.5864 7.54733 61.4017 7.39935 61.1061 7.39935C60.5519 7.39935 60.1825 6.65941 60.1825 5.21654C60.1825 1.99782 62.6578 0.11099 65.3178 0.11099C67.9778 0.11099 68.7167 1.07291 69.4556 2.07182C69.6772 1.1099 70.6378 0.665941 71.3397 0.554951L71.4506 0.702938C71.0072 1.25789 70.7486 1.73885 70.7486 2.47878C70.7486 3.21872 71.0072 3.66268 71.118 3.95865L77.9528 23.7889L79.2828 24.6768L80.2433 23.8259L80.5758 24.2329V24.2699ZM45.7372 25.4538V20.0152C45.1092 19.7193 44.0008 19.2013 43.3728 18.8683L38.1267 24.3069C38.9394 23.8999 39.9 23.4559 41.5256 23.4559C43.1511 23.4559 44.8506 24.6398 45.6633 25.5277H45.7372V25.4538ZM50.8355 23.3079C48.2125 24.4548 44.4072 26.5637 42.56 28.2285C41.5994 27.3036 40.3433 26.4527 38.7178 26.4527C37.0922 26.4527 36.5011 27.0076 36.5011 27.5256C36.5011 28.0435 37.1292 27.7845 37.1292 28.2655C37.1292 28.7465 36.9444 28.7465 36.6489 28.7465C36.3533 28.7465 35.9469 28.2285 35.9469 27.5626C35.9469 26.3417 36.5011 25.2688 38.4222 23.2709L41.8211 19.7563C40.4172 19.0533 38.3853 18.1654 37.24 17.6474V17.4625C37.5725 17.3515 37.8311 17.0555 37.8311 16.6485V13.7258C37.8311 13.3928 37.6464 12.9119 37.24 12.7639V12.6159C40.0847 11.617 43.7053 9.58215 45.7742 8.10228C46.2544 8.62024 47.4367 9.69314 48.7667 9.69314C50.0967 9.69314 50.1336 9.17519 50.1336 8.76823C50.1336 8.36126 49.7272 8.43526 49.7272 8.10228C49.7272 7.76931 49.875 7.69532 50.0967 7.69532C50.4292 7.69532 50.6878 7.99129 50.6878 8.62024C50.6878 10.4331 48.9144 12.8379 46.1806 12.8379C43.4467 12.8379 43.2619 11.9499 42.4122 10.766H42.3383V15.3536L44.8506 16.5745L45.9589 15.3906C47.1411 16.1306 49.5794 17.4625 50.8725 18.0174V18.1284C50.6139 18.2394 50.2814 18.5354 50.2814 19.0903V22.309C50.2814 22.753 50.6139 23.049 50.8725 23.16V23.3079H50.8355ZM30.1836 25.5647V14.3177C28.6319 13.4668 26.3414 11.765 25.2331 10.84H25.1592V22.272C26.6369 23.086 28.8906 24.5658 30.1097 25.6387H30.1836V25.5647ZM35.3189 23.3079C33.0653 24.2329 28.6689 26.5637 26.7847 28.2285C24.7897 26.7856 21.8711 24.8618 20.0239 23.7889V23.6779C20.5042 23.4929 20.615 23.123 20.615 22.568V14.0218C20.615 13.2448 20.4303 12.9489 20.0239 12.8009V12.6529C23.1272 11.506 26.0828 9.87813 28.595 8.13928C30.3314 9.43417 33.3239 11.321 35.3189 12.5049V12.6529C34.9494 12.8009 34.7278 13.1708 34.7278 13.7258V22.198C34.7278 22.79 34.9494 23.049 35.3189 23.16V23.3079ZM11.8222 22.161V6.25245C9.60555 5.99347 8.3125 4.43961 7.57361 3.55169L5.43083 5.29053C5.43083 7.69532 6.13278 9.80414 6.94556 11.728C7.68444 13.4668 8.53417 15.7606 8.53417 17.3515C8.53417 19.9412 7.13028 21.5691 3.69444 24.7878L3.80528 24.8988C5.83722 23.3819 9.08833 22.198 11.8222 22.161ZM19.7283 22.568L16.625 28.3395C14.8886 27.1186 12.0808 26.3787 9.71639 26.3787C5.06139 26.3787 1.84722 27.2296 0.184722 28.2655L0 28.0435C1.47778 26.7486 3.95306 24.6768 3.95306 19.9042C3.95306 15.1317 3.14028 15.6496 2.54917 14.1328C1.88417 12.3939 1.36694 11.543 1.36694 9.1012C1.36694 4.92057 3.58361 2.55277 7.13028 0.739935L7.38889 1.07291C6.16972 2.10881 5.61556 3.4037 5.43083 4.73558L11.0833 0C12.5242 2.03482 13.8911 2.81175 15.7014 2.81175C17.5117 2.81175 17.5856 2.18281 17.5856 1.66485C17.5856 1.1469 17.0683 1.22089 17.0683 0.850925C17.0683 0.480958 17.29 0.406964 17.5117 0.406964C17.955 0.406964 18.1028 0.998912 18.1028 1.40588C18.1028 4.25462 15.8492 6.40043 13.3 6.40043C10.7508 6.40043 12.4503 6.40043 12.1917 6.40043V22.198C14.4083 22.198 16.8467 22.938 18.5092 23.7889L19.285 22.383L19.7283 22.568ZM237.627 24.4918C236.555 25.4168 234.486 27.2296 233.452 28.2285C232.491 27.3776 230.533 25.8237 229.314 24.9358V24.7878C229.684 24.6768 229.905 24.3439 229.905 23.5299V14.0958C228.908 13.3928 226.987 12.1719 225.952 11.469L225.213 12.0979V23.9739L226.876 25.1948C226.876 25.1948 224.585 27.1926 223.551 28.1915C222.627 27.3036 221.297 26.3047 220.078 25.3798V25.2318C220.447 25.1208 220.669 24.7878 220.669 23.9739V14.0958C219.672 13.3928 217.751 12.1719 216.716 11.469L215.793 12.2459V23.9739L217.455 25.1948C217.455 25.1948 215.201 27.0816 214.13 28.1545C213.133 27.2296 211.987 26.4157 210.657 25.3798V25.2688C211.027 25.1208 211.248 24.6398 211.248 24.1219V12.7639L209.807 11.469L208.884 12.2459L208.551 11.876C209.549 11.025 211.248 9.54516 212.726 8.13928L215.793 10.914V11.691L220.004 8.13928C221.334 9.1012 225.213 11.58 225.213 11.58L229.24 8.13928C230.533 9.13819 233.452 10.988 235.078 11.9499V12.0979C234.523 12.2459 234.486 12.9489 234.486 13.3188V23.5299L236.334 24.9358L237.22 24.1219L237.59 24.4918" fill="#434343"/>
<path d="M208.736 4.5142C207.665 6.03107 206.778 6.73401 205.005 6.73401C203.231 6.73401 202.899 6.10506 201.975 4.92116L201.126 5.6981L200.793 5.29113L204.931 1.59146C206.113 3.99625 207.554 4.36621 208.699 4.32922L208.773 4.4772L208.736 4.5142ZM209.771 24.4924C208.588 25.4913 206.704 27.1562 205.596 28.2291C204.598 27.3042 202.862 25.9723 201.495 24.9364V24.8254C201.864 24.6774 202.086 24.1965 202.086 23.6785V12.8015L200.645 11.5066L199.722 12.2835L199.389 11.9135C200.387 11.0626 202.086 9.58275 203.564 8.17688L207.258 11.4696V11.6176C206.815 11.7656 206.667 12.0245 206.667 13.0234V23.5305L208.514 24.8994L209.401 24.1225L209.771 24.4924ZM139.354 24.4924C138.172 25.4913 136.288 27.1562 135.18 28.2291C134.182 27.3042 132.446 25.9723 131.079 24.9364V24.8254C131.448 24.6774 131.67 24.1965 131.67 23.6785V6.10506L130.229 4.81017L129.306 5.58711L128.973 5.21714C129.971 4.36621 131.448 2.88634 132.889 1.48047L136.805 4.77318V4.92116C136.362 5.06915 136.214 5.32813 136.214 6.32704V23.5305L138.061 24.8994L138.948 24.1225L139.318 24.4924H139.354ZM98.8264 24.4924C97.755 25.4174 95.6861 27.2302 94.6517 28.2291C93.6911 27.3782 91.77 25.8243 90.5508 24.9364V24.7884C90.9203 24.6774 91.1419 24.3444 91.1419 23.5305V14.0964C90.1444 13.3934 88.2233 12.1725 87.1889 11.4696L86.2653 12.2465V23.9745L87.9278 25.1954C87.9278 25.1954 85.6742 27.0822 84.6028 28.1551C83.6053 27.2302 82.46 26.4163 81.13 25.3804V25.2694C81.4994 25.1214 81.7211 24.6404 81.7211 24.1225V12.7645L80.2803 11.4696L79.3567 12.2465L79.0242 11.8766C80.0217 11.0256 81.7211 9.54576 83.1989 8.13988L86.2653 10.9146V11.6916L90.4769 8.13988C91.77 9.13879 94.6886 10.9886 96.3142 11.9505V12.0985C95.76 12.2465 95.7231 12.9495 95.7231 13.3194V23.5305L97.5703 24.9364L98.457 24.1225L98.8264 24.4924Z" fill="#434343"/>
<path d="M264.116 11.4689V11.3209C263.635 11.5799 262.638 11.8388 262.158 11.8388C260.2 11.8388 259.239 11.0989 258.389 10.026L257.724 10.4699C258.648 11.6538 259.498 12.4308 261.456 12.4308C262.564 12.4308 263.672 11.8388 264.116 11.4319V11.4689ZM257.577 19.0902C256.468 18.4982 254.584 17.6843 253.623 17.3143V17.2404C253.882 17.0924 253.919 16.7964 253.919 16.3894V13.6887C253.919 13.0967 253.697 12.8377 253.476 12.5418L252.885 12.7637C253.106 13.0227 253.254 13.2817 253.254 13.5407V16.5744C253.254 17.0184 253.143 17.2773 252.885 17.4623V17.5363C253.956 17.9803 255.766 18.7572 257.17 19.4972L257.577 19.0532M261.862 25.0467V19.3122C261.271 19.0532 259.867 18.4242 259.239 18.0543L258.759 18.5722C259.424 18.8682 260.532 19.4232 261.197 19.7561V25.4166L261.862 25.0467ZM248.008 15.9085C246.974 14.5026 245.015 11.7648 243.981 10.248L243.353 10.5809C244.461 12.2088 246.382 14.9466 247.417 16.2784L248.008 15.9085ZM258.205 27.2665C257.355 26.3046 255.766 25.6016 254.621 25.6016C253.476 25.6016 252.995 25.8976 252.7 26.1566V26.3046C253.254 26.1566 253.513 26.1566 253.808 26.1566C255.582 26.1566 256.764 26.8595 257.65 27.7474L258.205 27.2665ZM245.533 27.4145C243.612 26.1566 240.508 24.7877 239.252 24.3067V24.2327C239.511 24.0847 239.585 23.7148 239.585 23.0118V13.7627C239.585 13.0227 239.363 12.7637 239.104 12.6158L238.513 12.8377C238.735 13.0597 238.883 13.2817 238.883 13.8736V23.7518C238.883 24.1217 238.735 24.4177 238.513 24.5287V24.6027C240.028 25.2316 243.427 26.8225 245.126 27.8954L245.533 27.4515V27.4145ZM233.969 27.3405C233.156 26.6005 231.42 25.3056 230.644 24.7507V24.6767C230.903 24.5287 230.977 24.1217 230.977 23.4188V13.4297C229.794 12.6528 228.095 11.5429 226.913 10.7289L226.322 11.2839C227.467 11.9868 229.314 13.1707 230.312 13.9106V23.4928C230.312 24.3437 230.238 24.7137 229.868 24.8617V24.9357C230.718 25.5646 232.565 26.9705 233.452 27.8954L233.969 27.3775V27.3405ZM224.068 27.3035C223.255 26.5635 222.221 25.7496 221.408 25.2316V25.1577C221.667 25.0097 221.74 24.6027 221.74 23.8998V13.4297C220.558 12.6528 218.859 11.5429 217.677 10.7289L217.085 11.2839C218.231 11.9868 220.078 13.1707 221.075 13.9106V23.9738C221.075 24.8247 221.002 25.1947 220.632 25.3426V25.4166C221.482 26.0086 222.738 26.9705 223.625 27.8214L224.105 27.3405L224.068 27.3035ZM206.778 6.03034V5.88235C205.005 5.88235 204.155 5.47539 202.936 4.06951L202.308 4.66146C203.12 5.66037 203.933 6.40031 205.189 6.40031C206.445 6.40031 206.556 6.17833 206.815 6.03034M214.684 27.3035C213.908 26.6005 212.837 25.7866 212.024 25.2316V25.1577C212.283 24.9727 212.357 24.6397 212.357 24.1587V12.2828L210.657 10.7289L210.103 11.2469L211.655 12.6528V24.1957C211.655 24.7507 211.618 25.0837 211.248 25.3056V25.3796C212.246 26.0826 213.428 27.0815 214.204 27.7844L214.684 27.3035ZM206.076 27.3405C205.3 26.6375 203.601 25.3056 202.788 24.7507V24.6767C203.047 24.4917 203.12 24.1587 203.12 23.6778V12.2828L201.458 10.7659L200.904 11.2839L202.419 12.6528V23.7148C202.419 24.2697 202.382 24.6027 202.012 24.8247V24.8987C203.01 25.6016 204.783 27.1185 205.559 27.8214L206.039 27.3405H206.076ZM198.65 5.3274L198.576 5.14242C197.911 5.62338 196.951 6.14133 194.993 6.14133C191.04 6.14133 188.047 3.95852 182.321 3.95852C176.594 3.95852 179.956 4.58747 179.624 4.95744V5.14242C180.51 4.84645 180.954 4.77245 181.951 4.77245C187.862 4.77245 191.15 6.88127 194.549 6.88127C197.948 6.88127 198.133 5.91935 198.687 5.4014M194.956 27.0445L194.882 26.8595C193.626 27.4515 191.52 27.8954 188.343 27.8954C182.727 27.8954 178.183 23.6408 178.183 17.7213C178.183 11.8018 179.624 11.4319 180.769 9.98899L180.584 9.915C179.439 11.1359 177.296 13.3557 177.296 18.0913C177.296 22.8269 182.358 28.6723 188.01 28.6723C191.631 28.6723 193.995 27.5624 194.919 27.0445H194.956ZM166.324 11.4689V11.3209C165.844 11.5799 164.846 11.9128 164.366 11.9128C162.408 11.9128 161.447 11.0989 160.597 10.063L159.932 10.5069C160.856 11.6908 161.706 12.5418 163.664 12.5418C165.622 12.5418 165.88 11.8758 166.324 11.5059V11.4689ZM159.785 19.0902C158.676 18.4982 156.792 17.6843 155.832 17.3143V17.2404C156.09 17.0924 156.127 16.7964 156.127 16.3894V13.6887C156.127 13.0967 155.905 12.8377 155.684 12.5418L155.093 12.7637C155.314 13.0227 155.462 13.2817 155.462 13.5407V16.5744C155.462 17.0184 155.351 17.2773 155.093 17.4623V17.5363C156.164 17.9803 157.974 18.7572 159.378 19.4972L159.785 19.0532M164.07 25.0467V19.3122C163.479 19.0532 162.075 18.4242 161.447 18.0543L160.967 18.5722C161.632 18.8682 162.74 19.4232 163.405 19.7561V25.4166L164.07 25.0467ZM150.216 15.9085C149.182 14.5026 147.224 11.7648 146.189 10.248L145.561 10.5809C146.669 12.2088 148.59 14.9466 149.625 16.2784L150.216 15.9085ZM160.45 27.2665C159.6 26.3046 158.011 25.6016 156.866 25.6016C155.721 25.6016 155.24 25.8976 154.945 26.1566V26.3046C155.499 26.1566 155.758 26.1566 156.053 26.1566C157.827 26.1566 159.009 26.8595 159.895 27.7474L160.45 27.2665ZM147.778 27.3775C145.857 26.2676 142.716 24.7507 141.46 24.3067V24.2327C141.719 24.0847 141.793 23.7148 141.793 23.0118V13.7627C141.793 13.0227 141.571 12.7637 141.312 12.6158L140.721 12.8377C140.943 13.0597 141.091 13.2817 141.091 13.8736V23.7518C141.091 24.1217 140.943 24.4177 140.721 24.5287V24.6027C142.236 25.2316 145.672 26.8595 147.334 27.8954L147.778 27.4145V27.3775ZM135.66 27.3405C134.884 26.6375 133.185 25.3056 132.372 24.7507V24.6767C132.63 24.4917 132.704 24.1587 132.704 23.6778V5.58638L131.005 4.03252L130.451 4.55047L132.002 5.95635V23.7518C132.002 24.3067 131.965 24.6397 131.596 24.8617V24.9357C132.594 25.6386 134.367 27.1555 135.143 27.8584L135.623 27.3775L135.66 27.3405ZM127.31 15.9085C126.276 14.5026 124.318 11.7648 123.284 10.248L122.655 10.5809C123.764 12.2088 125.685 14.9466 126.719 16.2784L127.31 15.9085ZM124.872 27.3775C122.951 26.3046 119.811 24.7507 118.555 24.2697V24.1957C118.813 24.0478 118.887 23.6778 118.887 22.9748V13.7627C118.887 13.0227 118.665 12.7637 118.407 12.6158L117.816 12.8377C118.037 13.0597 118.185 13.2817 118.185 13.8736V23.7518C118.185 24.1217 118.037 24.4177 117.816 24.5287V24.6027C119.33 25.2316 122.729 26.8225 124.429 27.8954L124.872 27.4145V27.3775ZM115.377 27.9694V27.8584C115.156 27.8584 114.675 28.0434 113.937 28.0434C112.385 28.0434 110.796 26.8965 110.796 24.7137V13.6517C109.282 12.8747 106.954 11.3209 105.698 10.174L105.07 10.5809C106.289 11.6168 108.506 13.2447 110.131 14.0956V25.0467C110.131 27.3035 112.015 28.4874 113.678 28.4874C115.34 28.4874 115.23 28.1174 115.414 28.0064M106.954 27.3405C105.402 26.4155 102.964 25.0837 101.006 24.1587V24.0847C101.191 23.8628 101.228 23.6038 101.228 23.0118V13.8736C101.228 13.2447 101.043 12.8377 100.747 12.5418L100.156 12.7637C100.489 12.9487 100.563 13.3557 100.563 13.9106V23.6038C100.563 23.9738 100.526 24.2327 100.267 24.4177V24.4917C101.93 25.1946 104.59 26.7485 106.4 27.8584L106.991 27.3405H106.954ZM114.01 32.0021V31.8171C113.272 32.409 112.2 33.038 110.205 33.038C106.88 33.038 104.479 31.4101 102.262 31.4101C100.045 31.4101 100.156 31.8541 99.713 32.298V32.409C100.156 32.224 100.747 32.113 101.856 32.113C104.405 32.113 107.065 33.7779 109.836 33.7779C112.607 33.7779 113.53 32.631 114.047 32.039L114.01 32.0021ZM95.1688 27.2665C94.2452 26.5265 92.6196 25.1947 91.8438 24.6397V24.5657C92.1024 24.4177 92.1763 24.0108 92.1763 23.3078V13.4297C90.9941 12.6528 89.2946 11.5429 88.1124 10.7289L87.5213 11.2839C88.6666 11.9868 90.5138 13.1707 91.5113 13.9106V23.4928C91.5113 24.3437 91.4374 24.7137 91.068 24.8617V24.9357C91.9177 25.5646 93.6541 26.8965 94.6516 27.8214L95.1688 27.3035V27.2665ZM85.1199 27.3035C84.3441 26.6005 83.2727 25.7866 82.4599 25.2316V25.1577C82.7185 24.9727 82.7924 24.6397 82.7924 24.1587V12.2828L81.093 10.7289L80.5388 11.2469L82.0905 12.6528V24.1957C82.0905 24.7507 82.0535 25.0837 81.6841 25.3056V25.3796C82.6816 26.0826 83.8638 27.0815 84.6396 27.7844L85.1199 27.3035ZM71.8568 17.0924L67.9777 5.10542C67.2757 2.95961 66.3152 2.10869 64.5418 2.14568C63.5443 2.14568 62.6577 2.51565 62.2882 2.77463V2.99661C62.5838 2.81163 63.2488 2.66364 63.8768 2.66364C65.6871 2.66364 66.6107 3.29258 67.3866 5.69737L71.0441 17.0554H71.8938M76.9552 27.1555C76.1793 26.5635 74.5907 25.5276 73.778 25.0467C73.9257 24.8987 74.0735 24.6767 74.0735 24.3807C74.0735 24.0847 73.9627 23.7888 73.8888 23.5668L72.3371 18.7202H62.6207L62.436 19.3492H71.7091L73.1499 23.7518C73.2238 24.0108 73.2607 24.2697 73.2607 24.4547C73.2607 25.1207 72.8543 25.3796 72.8543 25.3796C73.7041 25.8606 75.2557 27.0075 76.2532 27.7844L76.9552 27.1555ZM63.6182 27.0075C62.5838 26.2676 61.2168 25.9346 59.6652 25.9346C58.1135 25.9346 57.4485 26.5265 57.0791 26.7855V26.9335C57.4485 26.8595 58.2982 26.6745 59.1849 26.6745C60.6996 26.6745 61.8818 27.0445 63.1749 27.8214L63.6182 27.0445V27.0075ZM48.9882 11.5429V11.3949C48.508 11.6538 47.5105 11.9128 47.0302 11.9128C45.1091 11.9128 44.1116 11.0989 43.2618 10.063L42.5968 10.5069C43.5205 11.6908 44.3702 12.5418 46.3282 12.5418C47.4366 12.5418 48.5449 11.9498 48.9882 11.5429ZM42.4491 19.0902C41.3407 18.4982 39.4566 17.6843 38.496 17.3143V17.2404C38.7546 17.0924 38.7916 16.7964 38.7916 16.3894V13.6887C38.7916 13.0967 38.5699 12.8377 38.3482 12.5418L37.7571 12.7637C37.9788 13.0227 38.1266 13.2817 38.1266 13.5407V16.5744C38.1266 17.0184 38.0157 17.2773 37.7571 17.4623V17.5363C38.8285 17.9803 40.6388 18.7572 42.0427 19.4972L42.4491 19.0532M46.7716 25.0467V19.3122C46.1805 19.0532 44.7766 18.4242 44.1485 18.0543L43.6682 18.5722C44.3332 18.8682 45.4416 19.4232 46.1066 19.7561V25.4166L46.7716 25.0467ZM43.1141 27.2665C42.2643 26.3046 40.6757 25.6016 39.5305 25.6016C38.3852 25.6016 37.9049 25.8976 37.6093 26.1566V26.3046C38.1635 26.1566 38.4221 26.1566 38.7177 26.1566C40.491 26.1566 41.6732 26.8595 42.5599 27.7474L43.1141 27.2665ZM31.181 24.9727V13.6147C29.5185 12.8007 27.191 11.0989 26.0827 10.174L25.4546 10.5439C26.4521 11.3949 28.8166 13.1707 30.516 14.0586V25.3426L31.181 24.9727ZM15.923 5.14242V4.92044C15.4057 5.14242 14.556 5.54938 13.7432 5.54938C10.9355 5.54938 9.19907 3.55156 8.53407 2.70063L7.90601 3.25559C8.9774 4.55047 10.4552 6.06734 13.1521 6.06734C15.8491 6.06734 15.4427 5.47539 15.923 5.14242ZM27.2649 27.4515C25.7132 26.2676 22.9055 24.4177 21.3538 23.6038V23.5298C21.5755 23.3448 21.6493 23.0488 21.6493 22.4939V13.8367C21.6493 13.2447 21.4646 12.8377 21.1691 12.5788L20.578 12.8007C20.8735 12.9857 20.9843 13.4297 20.9843 13.9106V22.8639C20.9843 23.2338 20.8366 23.5668 20.6149 23.7148V23.7888C22.573 24.8987 25.233 26.6375 26.8216 27.8584L27.3018 27.4885L27.2649 27.4515ZM5.09824 19.4232C5.09824 15.5755 2.40129 12.6158 2.40129 8.47213C2.40129 4.32849 2.62296 5.80836 2.88157 5.10542H2.69685C2.21657 6.03034 1.81018 7.51021 1.81018 9.10107C1.81018 13.3187 4.3224 15.6125 4.3224 19.7561C4.3224 23.8998 4.21157 21.9389 3.84212 22.8639H4.06379C4.76574 21.643 5.09824 20.792 5.09824 19.4232ZM16.8835 27.0445C15.7752 26.2676 12.9305 25.2686 10.3813 25.2686C6.35435 25.2686 4.06379 26.1566 2.91851 26.5635V26.7485C4.10074 26.4525 6.13268 25.9716 9.90101 25.9716C13.6693 25.9716 15.258 27.0445 16.5141 27.7844L16.9205 27.0445" fill="white"/>
<path d="M193.811 8.65757C193.811 8.87955 193.626 8.99054 193.441 8.99054C193.146 8.99054 192.887 8.39859 192.074 8.39859C190.892 8.39859 189.857 9.50849 189.857 10.6924C189.857 13.8371 192.961 15.132 192.961 18.7207C192.961 22.3094 190.005 23.4563 186.976 23.8632L186.385 23.4563C188.047 23.2343 188.86 22.6793 188.86 20.6445C188.86 18.6097 186.015 15.6869 186.015 12.4312C186.015 9.17552 188.454 7.80664 191.816 7.80664C195.177 7.80664 193.109 7.99162 193.478 8.17661C193.663 8.2876 193.774 8.39859 193.774 8.62057" fill="#434343"/>
<path d="M190.19 20.1635C190.19 17.3518 187.234 15.058 187.234 11.9503C187.234 8.84255 187.382 10.3594 187.789 9.73047H187.604C187.234 10.0634 186.532 11.0624 186.532 12.3202C186.532 15.502 189.34 17.4258 189.34 20.5705C189.34 23.7152 189.082 22.3464 188.601 22.9383L188.786 23.0123C189.451 22.4943 190.19 21.7914 190.19 20.2005" fill="white"/>
</svg>
