<svg width="26" height="24" viewBox="0 0 26 24" fill="none" xmlns="http://www.w3.org/2000/svg">
<g clip-path="url(#clip0_153_1574)">
<path d="M1.53215 6.67322C1.91104 6.54101 2.36355 6.58881 2.72844 6.85291L2.83977 6.94275C3.0769 7.15968 3.15478 7.41562 3.16887 7.68494C3.17682 7.83713 3.16418 7.99411 3.14934 8.14978C3.13438 8.30666 3.11757 8.46207 3.11418 8.6156C3.10083 9.2202 3.07519 10.1289 3.06731 10.9056C3.63838 10.6725 4.18464 10.6708 4.71086 11.0472C5.20124 11.3964 5.67835 11.9058 6.14934 12.4193C6.61897 12.9314 7.08303 13.4482 7.55461 13.8275C8.88969 14.0862 10.011 15.1729 10.8554 16.1527C11.5072 16.9116 11.5971 17.672 11.6454 18.6224C11.6696 19.0989 11.6606 19.5043 11.6503 19.89C11.6404 20.2604 11.6302 20.6122 11.6445 20.9945H12.4491C12.4936 20.9945 12.5279 21.0258 12.5497 21.0521C12.5736 21.0809 12.5946 21.1188 12.6122 21.1566C12.6466 21.2303 12.6719 21.3179 12.6767 21.3705H12.6777C12.7402 21.87 12.7261 23.1146 12.6777 23.6185C12.6656 23.744 12.6532 23.8351 12.6357 23.8998C12.6183 23.9637 12.5934 24.0119 12.5497 24.0394C12.5073 24.0662 12.4576 24.0661 12.412 24.0629C12.3616 24.0592 12.3107 24.0518 12.2411 24.0502V24.0492L4.62004 24.0228H4.61223L4.60442 24.0199C4.49734 23.9834 4.43953 23.9075 4.40813 23.8226C4.37781 23.7406 4.3709 23.6467 4.36418 23.5707V23.5697C4.32277 23.046 4.30869 21.9387 4.36418 21.4261C4.37799 21.2987 4.39036 21.2087 4.40324 21.1469C4.4155 21.0881 4.4296 21.0443 4.45207 21.0179C4.46517 21.0026 4.48208 20.9924 4.50188 20.9886C4.51989 20.9852 4.53624 20.988 4.5468 20.9906C4.55229 20.992 4.55809 20.9942 4.56242 20.9955C4.56679 20.9968 4.5705 20.9975 4.57414 20.9984C4.58164 21.0004 4.58749 21.0013 4.5927 21.0013H5.39543C5.45338 20.6635 5.48463 20.345 5.34074 20.0336C4.69367 19.2057 3.90144 18.4556 3.0966 17.7133C2.29103 16.9702 1.47199 16.2344 0.781174 15.4388C-0.132681 14.3842 -0.148191 13.0183 0.0682831 11.6244C0.176579 10.9271 0.344609 10.2175 0.489182 9.53357C0.634044 8.84821 0.755798 8.18754 0.776291 7.5824V7.57654H0.777267C0.845839 7.11934 1.15256 6.80572 1.53215 6.67322ZM5.0761 23.3334H11.9443V21.7045H5.0761V23.3334ZM1.94621 7.31091C1.71268 7.32201 1.4969 7.46225 1.47551 7.71716C1.40293 8.57452 1.2231 9.46077 1.0468 10.3412C0.870274 11.2227 0.696386 12.0993 0.634689 12.9427C0.572704 13.7905 0.619621 14.1406 0.736252 14.3539C0.794281 14.4598 0.871995 14.5348 0.970627 14.6234C1.06879 14.7116 1.18677 14.8126 1.31828 14.9662C1.94581 15.6987 2.70787 16.39 3.47258 17.0834C4.2363 17.7759 5.00325 18.4712 5.63567 19.2094C6.05818 19.7002 6.27129 20.3098 6.12004 20.9564L6.15813 21.0013H10.9111C10.9054 20.8189 10.9039 20.6362 10.9052 20.4535L10.9228 19.2699C10.9233 19.0735 10.9206 18.8775 10.912 18.682C10.8776 17.8951 10.8359 17.2798 10.3515 16.6771C9.96762 16.2082 9.49018 15.7068 8.95403 15.2992C8.41735 14.8912 7.82416 14.5789 7.20891 14.4857L7.19524 14.4838L7.18449 14.475C6.69571 14.0757 6.22151 13.5506 5.74992 13.0365C5.27688 12.5208 4.80582 12.0159 4.32121 11.6498C4.08458 11.4711 3.85863 11.4063 3.66399 11.4164C3.46927 11.4265 3.30117 11.5122 3.17961 11.6429C2.9366 11.9046 2.87821 12.348 3.17278 12.725H3.1718C3.47458 13.1101 3.93577 13.5029 4.39348 13.9008C4.84827 14.2961 5.3009 14.6965 5.57707 15.0922C5.71637 15.2906 5.71833 15.5009 5.61711 15.6293C5.56648 15.6933 5.4921 15.7339 5.40422 15.7386C5.3168 15.7433 5.22004 15.7121 5.12199 15.6429C5.02736 15.5762 4.83031 15.4011 4.58781 15.1742C4.34415 14.9462 4.05073 14.6636 3.76262 14.3783C3.4746 14.0931 3.19131 13.8051 2.96574 13.5677C2.74171 13.3321 2.57067 13.1416 2.51262 13.0541V13.0531C2.31168 12.7553 2.26735 12.3619 2.27336 11.9691C2.2764 11.7715 2.29227 11.5712 2.30852 11.3812C2.32481 11.1907 2.34148 11.0108 2.3466 10.85C2.3741 9.78097 2.40012 8.725 2.44133 7.65564C2.4 7.41828 2.17883 7.29999 1.94621 7.31091Z" fill="#27A14A" stroke="#27A14A" stroke-width="0.1"/>
<path d="M24.0141 6.60571C24.5585 6.61619 25.1093 6.93226 25.1821 7.57153V7.57251C25.2609 8.43331 25.4444 9.32887 25.6245 10.2258C25.8042 11.1217 25.9812 12.0201 26.0434 12.8811C26.1055 13.74 26.0492 14.1998 25.893 14.5364C25.8149 14.7046 25.7127 14.8397 25.5922 14.9768C25.5322 15.0451 25.4668 15.1148 25.3979 15.1887L25.1772 15.4319C24.4863 16.2309 23.6674 16.9681 22.8618 17.7112C22.0565 18.4539 21.2639 19.2026 20.6166 20.0276C20.479 20.3338 20.4934 20.6664 20.562 20.9954H21.3725C21.3978 20.9954 21.4195 21.0054 21.436 21.0178C21.4522 21.0301 21.4661 21.0461 21.478 21.0627C21.5019 21.0963 21.5225 21.1402 21.5395 21.1838C21.573 21.2698 21.5977 21.3683 21.602 21.4192L21.6196 21.636C21.656 22.2058 21.6505 23.1764 21.602 23.6125C21.5882 23.7361 21.5739 23.8257 21.5561 23.8899C21.5385 23.953 21.5145 24.0015 21.4721 24.0295C21.4301 24.0571 21.38 24.0577 21.3344 24.0549C21.2838 24.0518 21.2356 24.0449 21.1655 24.0432V24.0422L13.5434 24.0159H13.5356L13.5278 24.0139C13.4206 23.9774 13.3629 23.9006 13.3315 23.8157C13.3164 23.7748 13.3076 23.7308 13.3012 23.6877L13.2875 23.5637C13.2461 23.0407 13.225 21.8779 13.2875 21.3645C13.3031 21.2371 13.3179 21.1501 13.3325 21.092C13.3397 21.0631 13.3472 21.0393 13.3559 21.0208C13.3643 21.0028 13.3759 20.985 13.393 20.9729C13.4125 20.9591 13.434 20.9566 13.4526 20.9602C13.4682 20.9633 13.4819 20.9706 13.4897 20.9749C13.4996 20.9804 13.5043 20.9829 13.5102 20.9856C13.5137 20.9872 13.5154 20.9884 13.5161 20.9885H14.3207C14.3321 20.6061 14.3232 20.2205 14.3149 19.8323C14.3063 19.4282 14.3 19.0208 14.3207 18.6155C14.3622 17.6511 14.4522 16.9113 15.1108 16.1458C15.9548 15.1664 17.0684 14.0807 18.4096 13.8215C18.8816 13.4422 19.3458 12.9248 19.8159 12.4124C20.2868 11.8989 20.764 11.3905 21.2543 11.0413C21.7407 10.6949 22.0248 10.5907 22.267 10.6194C22.3873 10.6336 22.4928 10.6806 22.602 10.7375C22.6938 10.7855 22.7884 10.8365 22.8998 10.8909C22.8986 10.7443 22.8996 10.5968 22.9018 10.4504C22.9044 10.2761 22.9066 10.103 22.8998 9.93188V9.93091C22.8896 9.59352 22.8398 9.14821 22.8051 8.70239C22.7707 8.26002 22.7515 7.81726 22.8041 7.49536V7.49438C22.9062 6.88914 23.4707 6.5954 24.0141 6.60571ZM14.0141 23.3333H20.8823V21.7053H14.0141V23.3333ZM24.0063 7.30396C23.7735 7.29289 23.5506 7.41119 23.5092 7.64868C23.5504 8.71812 23.5784 9.78074 23.6059 10.843C23.6127 11.1075 23.6304 11.3399 23.6469 11.5491C23.6634 11.7578 23.6785 11.9456 23.6811 12.1174C23.6863 12.4629 23.6393 12.7521 23.4389 13.0481C23.3793 13.1353 23.2055 13.3259 22.9789 13.5627C22.751 13.801 22.4654 14.0902 22.1762 14.3762C21.8869 14.6622 21.5937 14.9458 21.352 15.1731C21.1114 15.3993 20.918 15.5727 20.8305 15.636C20.6453 15.7699 20.4524 15.747 20.3452 15.6184C20.2402 15.4924 20.2343 15.2848 20.3745 15.0852C20.6506 14.6929 21.1042 14.294 21.559 13.8987C22.0165 13.501 22.4771 13.1063 22.7797 12.718C23.0724 12.3432 22.9889 11.9223 22.7319 11.6702C22.4753 11.4187 22.0436 11.3338 21.6303 11.6438C21.1492 12.0066 20.6852 12.506 20.2172 13.0159C19.7508 13.524 19.28 14.0422 18.7875 14.4348L18.7778 14.4426L18.7661 14.4456C17.5102 14.6861 16.39 15.6975 15.6 16.6711C15.2074 17.1551 15.0793 17.4623 15.0414 17.7395C15.0224 17.8793 15.026 18.0139 15.0327 18.1643C15.0393 18.3141 15.0482 18.4793 15.0395 18.675C15.0224 19.0595 15.0298 19.4532 15.0375 19.8499C15.045 20.231 15.0522 20.6153 15.0405 20.9954H19.7934L19.8315 20.9485C19.687 20.2903 19.8861 19.7005 20.3159 19.2024C20.9517 18.4643 21.719 17.7689 22.4819 17.0764C23.2456 16.3831 24.0058 15.6926 24.6332 14.9602C25.1482 14.36 25.3643 13.7283 25.3168 12.9348C25.2654 12.1019 25.0885 11.2241 24.9077 10.3391C24.7497 9.56605 24.5882 8.7873 24.5063 8.03247L24.477 7.71021C24.4555 7.45551 24.2397 7.31516 24.0063 7.30396Z" fill="#27A14A" stroke="#27A14A" stroke-width="0.1"/>
<path d="M12.8475 -0.0339355C13.0177 -0.0857954 13.1723 -0.000209724 13.3016 0.10376C13.3672 0.156541 13.4302 0.217727 13.4891 0.273682C13.5488 0.330395 13.604 0.381691 13.6561 0.420166V0.421143C15.2709 1.62002 17.1131 2.11208 19.1434 2.15259H19.1532L19.1629 2.15747C19.2484 2.19772 19.3035 2.24474 19.3367 2.30786C19.3686 2.36859 19.3778 2.4394 19.3846 2.51685L19.4237 3.08911C19.4873 4.50489 19.3561 6.41791 19.1082 7.65552C18.4228 11.0286 16.1719 13.4878 13.0194 14.8489L13.0008 14.8567L12.9813 14.8489C10.7207 13.9098 8.69254 12.2279 7.62581 10.0051C6.47673 7.6203 6.50504 4.91755 6.60139 2.34985L6.60237 2.33716L6.60921 2.32544C6.65196 2.25663 6.70454 2.21105 6.76448 2.18286C6.82363 2.15505 6.88752 2.14552 6.95003 2.14282C7.0119 2.14018 7.07697 2.14461 7.13753 2.14771C7.19942 2.15087 7.25859 2.15299 7.31429 2.14673V2.14575C9.14818 1.96997 10.7631 1.5719 12.2469 0.474854C12.3029 0.432653 12.4252 0.317276 12.5477 0.205322C12.608 0.150214 12.668 0.0961937 12.7176 0.0549316C12.7423 0.0344281 12.7654 0.0169263 12.785 0.00317383C12.7958 -0.00443939 12.809 -0.0101489 12.8211 -0.0163574L12.8358 -0.0310059L12.8475 -0.0339355ZM12.9588 0.782471C11.4255 2.15789 9.32176 2.7049 7.29964 2.84497C7.25231 5.14252 7.25255 7.45338 8.21175 9.56958C9.17283 11.6898 10.9571 13.1496 12.992 14.0618C15.2801 12.9945 17.1334 11.2929 18.0067 8.91626C18.8778 6.54486 18.6888 4.90808 18.659 2.84497C16.6088 2.71084 14.5379 2.12489 12.9588 0.782471Z" fill="#27A14A" stroke="#27A14A" stroke-width="0.1"/>
<path d="M15.1361 4.63892C16.0677 4.57031 16.7268 5.55455 16.2309 6.36353L16.227 6.36938L16.1879 6.33716L16.226 6.36938C15.7287 6.96692 15.2658 7.6577 14.7953 8.34302C14.3257 9.02714 13.848 9.70492 13.3256 10.2737L13.3266 10.2747C13.0267 10.6046 12.6893 10.7616 12.35 10.7473C12.0115 10.733 11.6813 10.5487 11.393 10.22C10.8275 9.57512 10.046 8.53506 9.77481 8.0354C9.26486 7.09511 10.0655 6.061 11.1264 6.33618C11.3864 6.40367 11.5754 6.49926 11.7182 6.61157C11.8609 6.7239 11.9555 6.85157 12.0287 6.98169C12.1007 7.10964 12.1551 7.2451 12.2113 7.36353C12.26 7.46604 12.3126 7.55959 12.3832 7.64087L14.3647 4.99927L14.3705 4.99048L14.4047 5.02954L14.3715 4.99146C14.5667 4.81992 14.7971 4.66274 15.0815 4.63403L15.1361 4.62817V4.63892ZM15.2016 5.34985L15.1967 5.35083V5.34985H15.1928C15.1535 5.35269 15.0981 5.3701 15.0424 5.39673C14.9871 5.42316 14.9368 5.45512 14.9076 5.48364L14.9086 5.48462C14.8243 5.56927 14.6506 5.798 14.432 6.09985C14.2147 6.40002 13.9554 6.76836 13.6996 7.12817C13.4441 7.48762 13.1922 7.83938 12.9897 8.10571C12.8886 8.23856 12.7994 8.35099 12.7279 8.43286C12.6922 8.47377 12.6595 8.50808 12.6322 8.53345C12.6189 8.54589 12.6062 8.55692 12.5941 8.56567C12.5825 8.57413 12.5684 8.58248 12.5541 8.58716C12.4384 8.62514 12.3607 8.63626 12.2973 8.62231C12.2342 8.6084 12.1915 8.57012 12.1508 8.53931L12.1469 8.53638C12.0685 8.46458 11.9763 8.34435 11.8793 8.2063C11.7816 8.06724 11.6753 7.90479 11.5707 7.74829C11.4658 7.59123 11.3619 7.43893 11.266 7.31665C11.1688 7.19273 11.0852 7.10717 11.0219 7.07349L10.9428 7.03931C10.7604 6.97636 10.5936 7.02399 10.4857 7.13013C10.3622 7.25173 10.3099 7.45613 10.4086 7.67896C10.5124 7.91303 10.8145 8.33726 11.1322 8.75024C11.4484 9.16122 11.7747 9.55555 11.9223 9.72778C12.0676 9.89746 12.2139 10.0001 12.3607 10.0159C12.5041 10.0312 12.665 9.96433 12.8451 9.75415C13.3388 9.18384 13.7917 8.53887 14.2445 7.88892C14.6955 7.24163 15.1463 6.58869 15.6352 6.00513C15.8 5.69346 15.5578 5.31358 15.2016 5.34985Z" fill="#27A14A" stroke="#27A14A" stroke-width="0.1"/>
</g>
<defs>
<clipPath id="clip0_153_1574">
<rect width="26" height="24" fill="white"/>
</clipPath>
</defs>
</svg>
