<svg width="24" height="24" viewBox="0 0 24 24" fill="none" xmlns="http://www.w3.org/2000/svg">
<g clip-path="url(#clip0_153_1598)">
<path d="M19.3728 5.4118V21.434C19.3728 22.6137 17.9302 23.9866 16.7468 24H3.29749C1.54902 23.8333 0.146246 22.4004 0.0199301 20.6342C-1.44683e-05 20.3143 -0.0266073 19.3613 0.0332265 19.0947C0.0930603 18.8281 0.272562 18.7614 0.398878 18.7614H3.56342V16.4354C3.56342 16.2155 4.06868 16.1155 4.23489 16.3088C4.40109 16.502 4.3612 16.5687 4.3612 16.582V18.7548H13.7086C13.7551 18.7548 13.9213 18.8614 13.9612 18.9014C14.1806 19.128 14.0343 19.2879 14.0277 19.5279C14.0144 20.3876 14.041 21.2274 14.4532 22.0072C15.4969 23.98 18.4221 23.4135 18.5684 21.1807V2.5326C18.6149 1.87944 18.8942 1.30627 19.313 0.813073H5.33849C5.30525 0.813073 5.06591 0.90638 5.01273 0.933039C3.96896 1.42624 4.48087 3.11243 4.3612 4.07883C4.24154 5.04523 3.8227 4.75864 3.57007 4.28544C3.64985 3.45234 3.45705 2.40596 3.58337 1.59952C3.70968 0.793078 4.36785 0.226569 5.01273 0.0866078C10.4576 -0.0866774 15.9357 0.0666134 21.3939 0.00663004C22.4443 0.0666134 23.4083 0.72643 23.7739 1.71949C24.0332 2.41263 24.0332 4.21213 23.9601 4.98525C23.887 5.75837 23.8471 5.40513 23.6809 5.40513H19.3662L19.3728 5.4118ZM23.1623 4.61202V2.43929C23.1623 1.61285 22.1252 0.839732 21.3474 0.813073C20.5097 0.786413 19.3728 1.53954 19.3728 2.43929V4.61202H23.1623ZM13.2432 19.5545H0.824362V20.7275C0.824362 21.7939 2.23378 23.2002 3.29084 23.2002H14.3335C13.4293 22.2205 13.1634 20.8542 13.2366 19.5479L13.2432 19.5545Z" fill="#27A14A"/>
<path d="M10.1584 10.4104C10.1584 13.203 7.9047 15.4624 5.1191 15.4624C2.33351 15.4624 0.0731201 13.1963 0.0731201 10.4104C0.0731201 7.62456 2.32686 5.35852 5.11246 5.35852C7.89805 5.35852 10.1518 7.61789 10.1518 10.4104H10.1584ZM9.36065 10.4104C9.36065 8.06444 7.45927 6.1583 5.1191 6.1583C2.77894 6.1583 0.877552 8.06444 0.877552 10.4104C0.877552 12.7565 2.77894 14.6626 5.1191 14.6626C7.45927 14.6626 9.36065 12.7565 9.36065 10.4104Z" fill="#27A14A"/>
<path d="M8.73573 16.4688L16.9529 16.4554C17.4648 16.5154 17.5446 17.1952 16.9994 17.2552H8.76897C8.2903 17.2086 8.25041 16.5621 8.72909 16.4688H8.73573Z" fill="#27A14A"/>
<path d="M10.0388 14.4693L16.8532 14.456C17.385 14.4427 17.6111 15.0825 17.0526 15.2558L9.79277 15.2291C9.42712 14.9492 9.59998 14.5093 10.0321 14.4693H10.0388Z" fill="#27A14A"/>
<path d="M17.2653 10.6238C17.4847 10.8637 17.3584 11.2969 17.0061 11.3102C15.4171 11.1703 13.5224 11.4902 11.9667 11.3102C11.4548 11.2502 11.4681 10.5571 11.9667 10.5105C13.5689 10.6304 15.3839 10.3572 16.9595 10.5105C18.5352 10.6637 17.1856 10.5438 17.2653 10.6304V10.6238Z" fill="#27A14A"/>
<path d="M17.2654 5.24524C17.1923 5.31855 17.0128 5.35188 16.9064 5.36521C15.3574 5.50517 13.5889 5.2519 12.02 5.36521C11.4815 5.36521 11.4283 4.62541 11.9668 4.56543C13.5224 4.38548 15.4172 4.70539 17.0061 4.56543C17.3585 4.56543 17.4981 5.01864 17.2654 5.2519V5.24524Z" fill="#27A14A"/>
<path d="M17.2654 2.67259C17.4981 2.90585 17.3584 3.35906 17.0061 3.35906C15.4172 3.2191 13.5224 3.53901 11.9668 3.35906C11.4282 3.29908 11.4748 2.58594 12.0133 2.55928C13.5889 2.67259 15.3507 2.41932 16.9064 2.55928C17.0127 2.56595 17.1922 2.59927 17.2654 2.67925V2.67259Z" fill="#27A14A"/>
<path d="M11.7075 8.62432C11.7939 8.54434 11.9468 8.51768 12.0665 8.50435C13.6022 8.36439 15.3507 8.61765 16.9064 8.50435C17.4382 8.50435 17.5845 9.23748 17.0061 9.30413L11.7673 9.25748C11.5745 9.10419 11.5213 8.7976 11.7141 8.61765L11.7075 8.62432Z" fill="#27A14A"/>
<path d="M11.7075 13.1896C11.4416 12.943 11.6211 12.5432 11.9668 12.5032C13.5225 12.3232 15.4172 12.6431 17.0061 12.5032C17.5513 12.5632 17.4648 13.243 16.9596 13.3029C15.384 13.1896 13.6222 13.4496 12.0665 13.3029C11.9535 13.2896 11.8006 13.263 11.7075 13.183V13.1896Z" fill="#27A14A"/>
<path d="M11.8271 6.57153L17.1789 6.58486C17.5579 6.89811 17.3651 7.30466 16.9064 7.35798C15.4039 7.5246 13.6022 7.23135 12.0731 7.35798C11.6011 7.32466 11.4017 6.85146 11.8338 6.57153H11.8271Z" fill="#27A14A"/>
<path d="M5.54461 7.2713C5.87702 7.17133 6.14294 7.3846 6.10305 7.73117L4.89973 13.2763C4.76677 13.7428 4.0953 13.6429 4.11524 13.1497L5.38505 7.41792C5.42494 7.36461 5.47812 7.29796 5.54461 7.27796V7.2713Z" fill="#27A14A"/>
<path d="M4.32133 9.21078C4.32133 9.87059 3.78283 10.4104 3.12465 10.4104C2.46648 10.4104 1.92798 9.87059 1.92798 9.21078C1.92798 8.55096 2.46648 8.01111 3.12465 8.01111C3.78283 8.01111 4.32133 8.55096 4.32133 9.21078ZM3.52355 9.21078C3.52355 8.99084 3.34404 8.81089 3.12465 8.81089C2.90526 8.81089 2.72576 8.99084 2.72576 9.21078C2.72576 9.43071 2.90526 9.61066 3.12465 9.61066C3.34404 9.61066 3.52355 9.43071 3.52355 9.21078Z" fill="#27A14A"/>
<path d="M8.31022 11.6101C8.31022 12.2699 7.77172 12.8097 7.11355 12.8097C6.45537 12.8097 5.91687 12.2699 5.91687 11.6101C5.91687 10.9503 6.45537 10.4104 7.11355 10.4104C7.77172 10.4104 8.31022 10.9503 8.31022 11.6101ZM7.51244 11.6101C7.51244 11.3901 7.33294 11.2102 7.11355 11.2102C6.89416 11.2102 6.71465 11.3901 6.71465 11.6101C6.71465 11.83 6.89416 12.01 7.11355 12.01C7.33294 12.01 7.51244 11.83 7.51244 11.6101Z" fill="#27A14A"/>
</g>
<defs>
<clipPath id="clip0_153_1598">
<rect width="24" height="24" fill="white"/>
</clipPath>
</defs>
</svg>
