<svg width="24" height="24" viewBox="0 0 24 24" fill="none" xmlns="http://www.w3.org/2000/svg">
<g clip-path="url(#clip0_153_1582)">
<path d="M21.5327 22.0558C21.02 24.6177 17.4633 24.6762 16.9378 22.0948L16.7968 22.0428H7.18395L7.08782 22.0948C6.56232 24.6697 2.99917 24.6112 2.4929 22.0558C1.43549 22.0688 0.448571 21.4641 0.147369 20.4107C-0.0384789 19.754 -0.00643612 17.5627 0.0448322 16.8019C0.0961006 16.0412 0.256314 15.8461 0.551107 15.4625C1.69183 14.4416 2.7172 13.0826 3.86432 12.0943C5.01145 11.1059 6.57514 11.6196 7.8953 11.5156C8.13882 10.9043 8.1965 10.0916 9.01039 10.0005C9.82427 9.9095 10.4523 9.95501 10.7663 10.02C11.4649 10.1631 11.4905 10.9434 11.7212 11.4896C13.1311 11.6521 14.6691 11.1319 15.8355 12.1463C17.0403 13.1867 18.0849 14.5977 19.3089 15.6445C20.8021 16.3858 23.3143 16.0477 23.8782 18.0309C24.0448 18.6031 24.0384 19.923 23.8526 20.4887C23.5257 21.5031 22.5645 22.0688 21.5327 22.0558ZM10.9073 11.5156C10.8689 11.3335 10.7727 10.8458 10.6061 10.7743C10.4395 10.7028 9.18983 10.7093 9.04243 10.7743C8.80531 10.8783 8.7925 11.3075 8.69637 11.5156H10.9073ZM23.2117 18.7786C23.2694 18.0374 22.84 17.4717 22.1671 17.2311C21.1354 16.867 19.5076 16.7954 18.6681 16.0997C17.5145 15.1308 16.4827 13.6613 15.3292 12.7055C14.1757 11.7496 14.714 12.3219 14.2974 12.2893C11.3559 12.0813 8.17728 12.4454 5.21012 12.2893C4.92814 12.3349 4.64617 12.4259 4.41546 12.6015C3.44777 13.7459 2.07634 14.7732 1.1471 15.9176C0.974071 16.1257 0.839492 16.3728 0.813858 16.6524C0.730547 17.4327 0.749772 19.0712 0.813858 19.871C0.877943 20.6708 1.63415 21.347 2.4929 21.2495C3.06326 18.6291 6.5431 18.6486 7.1455 21.256H16.8865C17.4889 18.6551 20.9687 18.6161 21.5391 21.2495C22.5196 21.3666 23.3335 20.5473 23.2181 19.5459H22.3786C22.244 19.5459 22.071 19.3118 22.0646 19.1753C22.0582 19.0387 22.2312 18.7656 22.3786 18.7656H23.2181L23.2117 18.7786ZM6.38288 21.6462C6.38288 20.7618 5.67153 20.0401 4.79997 20.0401C3.92841 20.0401 3.21706 20.7618 3.21706 21.6462C3.21706 22.5305 3.92841 23.2522 4.79997 23.2522C5.67153 23.2522 6.38288 22.5305 6.38288 21.6462ZM20.8085 21.6527C20.8085 20.7683 20.0972 20.0466 19.2256 20.0466C18.354 20.0466 17.6427 20.7683 17.6427 21.6527C17.6427 22.537 18.354 23.2587 19.2256 23.2587C20.0972 23.2587 20.8085 22.537 20.8085 21.6527Z" fill="#27A14A"/>
<path d="M14.4192 8.49207H10.023C9.51671 8.49207 8.44648 7.94587 8.05556 7.61426C5.82539 5.74159 6.79949 2.9391 6.588 0.370692C6.588 6.03923e-05 6.8828 -0.0649626 7.184 0.0585811C8.01711 0.396701 9.01043 1.13796 9.35009 2.00277C9.42699 2.19134 9.61284 3.08865 9.69615 3.11466L20.7381 3.12767C20.8919 3.16018 21.0393 3.19919 21.1867 3.25771C21.7442 3.47879 23.3656 5.13038 23.5963 5.68958C24.0961 6.91201 23.3015 8.37503 21.9941 8.48557C20.7381 8.5961 19.3346 8.39453 18.0593 8.49207C17.7581 8.67413 17.5402 8.96674 17.2518 9.18781C16.5597 9.7015 15.5023 10.0981 14.6371 10.1437C13.0799 10.2282 14.1309 9.24633 14.4192 8.48557V8.49207ZM7.30576 1.02742V4.70773C7.30576 6.20976 8.93994 7.7443 10.4011 7.75731H14.8166C14.8999 7.7378 15.2716 6.64541 15.5536 6.64541C16.4892 6.69093 17.553 6.54788 18.4759 6.63241C19.2192 6.70393 18.7514 7.36067 18.5912 7.75731H21.9301C22.1736 7.75731 22.6286 7.39318 22.7696 7.19811C23.0836 6.76896 23.0451 6.3333 22.8657 5.85863H19.5269C19.45 5.85863 19.027 5.72859 18.9245 5.68958C18.2131 5.41648 17.5722 4.6362 17.4825 3.86243L9.16424 3.83642C9.06811 3.80391 9.04248 3.75189 8.99762 3.66086C8.8374 3.34224 8.81818 2.78305 8.69001 2.41241C8.45289 1.73618 7.9338 1.29402 7.29294 1.02742H7.30576ZM22.1095 5.12388C22.1287 5.03935 22.0775 5.02634 22.039 4.97432C21.8083 4.66871 20.9752 3.85593 20.5971 3.85593H18.2644C18.322 4.36311 18.8411 4.87029 19.309 5.01334C19.7768 5.15639 19.7768 5.12388 19.8729 5.12388H22.1095ZM17.8799 7.36717H15.8612L14.855 9.36338C15.6497 9.22033 16.3995 8.94073 17.0211 8.41404C17.6427 7.88735 17.9888 7.4582 17.8863 7.36717H17.8799Z" fill="#27A14A"/>
<path d="M0.608822 3.18615C2.06356 3.28368 3.78746 3.01059 5.21016 3.17315C5.78693 3.23817 5.73566 3.9014 5.26143 3.95342C3.83873 4.12248 2.10201 3.82338 0.647273 3.95342C0.173041 3.90791 0.13459 3.26418 0.608822 3.18615Z" fill="#27A14A"/>
<path d="M0.512674 6.20966L5.26141 6.19666C5.71 6.22266 5.78691 6.87289 5.30627 6.93142C3.85153 7.10048 2.08277 6.80137 0.595985 6.93142C0.192247 6.90541 0.173021 6.37222 0.512674 6.20966Z" fill="#27A14A"/>
<path d="M1.9354 4.79866C1.98666 4.74664 2.15329 4.69462 2.23019 4.68812C3.17225 4.58408 4.30015 4.77265 5.26143 4.68812C5.74207 4.74664 5.7613 5.39037 5.26143 5.46839C4.76156 5.54642 2.84541 5.53342 2.28146 5.46839C1.71751 5.40337 1.65342 5.08476 1.9354 4.79866Z" fill="#27A14A"/>
<path d="M5.37036 13.2777L14.0603 13.2646C14.3039 13.2646 14.5154 13.3362 14.7076 13.4857C15.592 14.175 16.4187 15.3844 17.3031 16.1192C17.6427 16.6068 17.2582 17.1985 16.7007 17.218L2.73645 17.192C2.25581 17.0685 2.06355 16.5158 2.33271 16.0932C3.19146 15.3519 3.98612 14.2205 4.85127 13.5312C5.01148 13.4012 5.16529 13.3232 5.37036 13.2777ZM6.53672 14.0514H5.40881L3.0761 16.4443H6.53672V14.0514ZM9.84994 14.0514H7.25447V16.4443H9.84994V14.0514ZM16.534 16.4378L14.2013 14.0449H10.619V16.4378H16.5276H16.534Z" fill="#27A14A"/>
<path d="M8.69639 19.2208C8.69639 18.9152 8.63871 18.4991 8.76688 18.2455H9.65767C9.65767 18.5706 9.65767 18.8957 9.65767 19.2208C9.9781 19.2208 10.2985 19.2208 10.619 19.2208C10.619 18.8957 10.619 18.5706 10.619 18.2455H11.529C11.529 18.5706 11.529 18.8957 11.529 19.2208C11.8494 19.2208 12.1698 19.2208 12.4902 19.2208C12.4902 18.8957 12.4902 18.5706 12.4902 18.2455H13.4003C13.4003 18.5706 13.4003 18.8957 13.4003 19.2208C13.7207 19.2208 14.0411 19.2208 14.3615 19.2208C14.3615 18.8957 14.3615 18.5706 14.3615 18.2455H15.2523C15.3805 18.4991 15.3228 18.9152 15.3228 19.2208C15.624 19.2208 15.9316 19.2208 16.2328 19.2208V20.1962H15.3228C15.3228 19.8711 15.3228 19.5459 15.3228 19.2208C15.0024 19.2208 14.682 19.2208 14.3615 19.2208C14.3615 19.5459 14.3615 19.8711 14.3615 20.1962H13.4708C13.3426 19.9426 13.4003 19.5264 13.4003 19.2208C13.0991 19.2208 12.7915 19.2208 12.4902 19.2208C12.4902 19.5459 12.4902 19.8711 12.4902 20.1962H11.529C11.529 19.8711 11.529 19.5459 11.529 19.2208C11.2278 19.2208 10.9202 19.2208 10.619 19.2208C10.619 19.5264 10.6766 19.9426 10.5485 20.1962H9.65767C9.65767 19.8711 9.65767 19.5459 9.65767 19.2208C9.33724 19.2208 9.01682 19.2208 8.69639 19.2208C8.69639 19.5459 8.69639 19.8711 8.69639 20.1962H7.78638V19.2208C8.08758 19.2208 8.39519 19.2208 8.69639 19.2208Z" fill="#27A14A"/>
<path d="M5.8318 21.6527C5.8318 22.2249 5.37039 22.693 4.80643 22.693C4.24248 22.693 3.78107 22.2249 3.78107 21.6527C3.78107 21.0805 4.24248 20.6123 4.80643 20.6123C5.37039 20.6123 5.8318 21.0805 5.8318 21.6527ZM5.082 21.6527C5.082 21.4966 4.95383 21.3666 4.80003 21.3666C4.64622 21.3666 4.51805 21.4966 4.51805 21.6527C4.51805 21.8087 4.64622 21.9388 4.80003 21.9388C4.95383 21.9388 5.082 21.8087 5.082 21.6527Z" fill="#27A14A"/>
<path d="M20.251 21.6527C20.251 22.2249 19.7896 22.693 19.2256 22.693C18.6617 22.693 18.2003 22.2249 18.2003 21.6527C18.2003 21.0805 18.6617 20.6123 19.2256 20.6123C19.7896 20.6123 20.251 21.0805 20.251 21.6527ZM19.5076 21.6527C19.5076 21.4966 19.3794 21.3666 19.2256 21.3666C19.0718 21.3666 18.9436 21.4966 18.9436 21.6527C18.9436 21.8087 19.0718 21.9388 19.2256 21.9388C19.3794 21.9388 19.5076 21.8087 19.5076 21.6527Z" fill="#27A14A"/>
<path d="M11.5674 4.49965C11.7148 4.46714 12.4646 4.46714 12.5928 4.51265C12.8427 4.59718 12.9132 5.01333 12.6633 5.17589C12.4133 5.33844 11.7661 5.31243 11.5546 5.2279C11.1829 5.07835 11.2149 4.58418 11.5674 4.50615V4.49965Z" fill="#27A14A"/>
<path d="M13.4708 4.60358C13.6118 4.43452 14.5859 4.44752 14.7525 4.56457C14.9191 4.68161 14.964 5.03273 14.7717 5.16928C14.5795 5.30583 13.663 5.33184 13.4772 5.13027C13.2913 4.9287 13.349 4.74663 13.4772 4.60358H13.4708Z" fill="#27A14A"/>
<path d="M16.8993 4.60366C17.0403 4.75972 17.0275 5.01331 16.8737 5.15636C16.7199 5.29941 15.7779 5.32542 15.5856 5.15636C15.3933 4.9873 15.4638 4.56465 15.7522 4.49962C16.0406 4.4346 16.7648 4.44761 16.9058 4.60366H16.8993Z" fill="#27A14A"/>
<path d="M9.49746 4.49965C9.74098 4.44113 10.6125 4.42162 10.7023 4.72073C10.8817 5.33194 10.0486 5.30594 9.6769 5.27342C9.04886 5.2084 9.09372 4.59718 9.49105 4.50615L9.49746 4.49965Z" fill="#27A14A"/>
</g>
<defs>
<clipPath id="clip0_153_1582">
<rect width="24" height="24" fill="white"/>
</clipPath>
</defs>
</svg>
