<svg width="23" height="10" viewBox="0 0 23 10" fill="none" xmlns="http://www.w3.org/2000/svg">
<g clip-path="url(#clip0_153_1624)">
<path d="M23 4.56053V5.44549L22.7424 6.58413C21.3289 10.3658 16.8906 10.9676 13.8838 8.51923C13.4406 8.15935 12.5781 7.32159 12.2966 6.85552C12.0151 6.38944 12.5481 5.82307 13.0573 6.32454C13.4586 6.72572 13.776 7.2095 14.2252 7.61068C16.3575 9.50448 19.7895 9.76997 21.4546 7.1623C23.1198 4.55463 21.3528 1.1328 18.2742 0.926313C12.069 0.501534 11.8054 9.86437 5.24683 10.0001C3.04267 10.0473 0.988241 8.67852 0.28147 6.61953C0.155688 6.24785 0.101782 5.87027 0.0119385 5.48678C0.0299072 5.1682 -0.0180094 4.82602 0.0119385 4.51333C0.209595 2.23605 2.1622 0.330443 4.43824 0.0531568C6.79814 -0.235929 8.79866 0.896814 10.2721 2.61363C10.3919 2.75522 10.7453 3.1446 10.7992 3.29209C10.919 3.64608 10.6015 3.97056 10.2362 3.88796C9.87079 3.80537 9.51741 3.121 9.33173 2.92041C7.69058 1.18 5.15699 0.18885 2.91689 1.51628C-0.515145 3.53988 0.790584 8.83192 4.79163 9.07381C10.9609 9.44549 11.2244 0.135753 17.7711 5.94461e-05C20.4125 -0.0530379 22.7783 1.94106 23 4.55463V4.56053Z" fill="#27A14A"/>
</g>
<defs>
<clipPath id="clip0_153_1624">
<rect width="23" height="10" fill="white"/>
</clipPath>
</defs>
</svg>
