<svg width="24" height="24" viewBox="0 0 24 24" fill="none" xmlns="http://www.w3.org/2000/svg">
<g clip-path="url(#clip0_153_1614)">
<path d="M22.4516 7.74195V21.6774C22.6452 21.6452 23.2258 21.671 23.2258 21.942V23.2258H24V24H0V23.2258H0.774194V18.7032C0.774194 18.6387 0.922581 18.2968 0.967742 18.2194C1.52903 17.1742 3.09032 17.1549 3.65806 18.1936C3.72258 18.3161 3.87742 18.6258 3.87742 18.7484V23.2258H11.6194V21.942C11.6194 21.671 12.2 21.6387 12.3935 21.6774V16.6452H2.10323C1.98065 16.6452 1.67097 16.4968 1.54839 16.4258C0.509677 15.8581 0.522581 14.2968 1.57419 13.7355C1.65161 13.6903 2 13.542 2.05806 13.542H12.3871V7.7355C11.9742 7.77421 11.5097 7.7355 11.6323 7.20002L13.3613 4.67098L21.4323 4.65808L21.5935 4.78711L23.2065 7.23873C23.2839 7.76131 22.8387 7.76776 22.4387 7.7355L22.4516 7.74195ZM22.1161 6.96776L21.1226 5.47098L21.0258 5.41937H13.8581L13.7161 5.47098L12.7226 6.96776H22.1097H22.1161ZM21.6774 7.74195H13.1613V21.6774H21.6774V7.74195ZM3.67742 14.3226H2.15484C2.04516 14.3226 1.76774 14.5355 1.69677 14.6387C1.36129 15.1097 1.61935 15.7097 2.15484 15.8581L3.67742 14.329V14.3226ZM6 14.3226H4.8129L3.29032 15.871H4.47742L6 14.3226ZM8.32258 14.3226H7.13548L5.6129 15.871H6.8L8.32258 14.3226ZM10.6452 14.3226H9.45807L7.93548 15.871H9.12258L10.6452 14.3226ZM12.3871 14.3226L11.7613 14.3484L10.2581 15.871H12.3871V14.3226ZM3.09677 20.9032V18.8C3.09677 18.4839 2.60645 18.1871 2.29677 18.1936C1.9871 18.2 1.54839 18.5097 1.54839 18.8V20.9032H3.09677ZM3.09677 21.6774H1.54839V23.2258H3.09677V21.6774ZM12.3871 22.4516V23.2258H22.4516V22.4516H12.3871Z" fill="#27A14A"/>
<path d="M10.8387 5.03226C10.8387 7.8129 8.58707 10.0645 5.80643 10.0645C3.02578 10.0645 0.77417 7.80645 0.77417 5.03226C0.77417 2.25806 3.02578 0 5.80643 0C8.58707 0 10.8387 2.25161 10.8387 5.03226ZM10.0645 5.03226C10.0645 2.67742 8.15482 0.774194 5.80643 0.774194C3.45804 0.774194 1.54836 2.67742 1.54836 5.03226C1.54836 7.3871 3.45804 9.29032 5.80643 9.29032C8.15482 9.29032 10.0645 7.38065 10.0645 5.03226Z" fill="#27A14A"/>
<path d="M20.9032 8.50964V16.258H13.929V8.50964H20.9032ZM20.129 9.29029H14.7097V15.4838H15.4839V13.6709C15.4839 12.7484 16.6258 11.9742 17.4968 12C18.3032 12.0258 19.3548 12.8193 19.3548 13.6709V15.4838H20.129V9.29029ZM18.5806 15.4838V13.7161C18.5806 13.6903 18.4516 13.4 18.4193 13.3484C17.9548 12.5806 16.8839 12.5806 16.4193 13.3484C16.3871 13.4 16.258 13.6903 16.258 13.7161V15.4838H18.5806Z" fill="#27A14A"/>
<path d="M14.2129 17.0388L20.6968 17.0646C20.8194 17.1291 20.8968 17.2452 20.9032 17.3872C20.8323 18.3872 20.9936 19.5033 20.9032 20.4904C20.8129 21.4775 20.7806 20.8775 20.4903 20.9033C18.5355 21.0839 16.3226 20.7613 14.3419 20.9033C14.1226 20.9162 13.9419 20.7613 13.929 20.542C14 19.542 13.8387 18.4259 13.929 17.4388C14.0194 16.4517 14 17.1033 14.2065 17.0388H14.2129ZM20.129 17.8065H14.7097V20.1291H20.129V17.8065Z" fill="#27A14A"/>
<path d="M6.19353 1.54844V2.34844C6.8516 2.60006 7.36127 3.12909 7.35482 3.87102H6.58063C6.53547 2.73554 4.8645 2.90973 5.04514 4.02586C5.16127 4.72909 5.83224 4.5678 6.29031 4.71619C7.09676 4.9678 7.53547 5.87748 7.28385 6.67102C7.10966 7.20651 6.69031 7.50328 6.19353 7.70973V8.50973H5.41934V7.70973C4.76127 7.45812 4.2516 6.92909 4.25805 6.18715H5.03224C5.0774 7.32264 6.74837 7.14844 6.56772 6.03231C6.4516 5.32909 5.78063 5.49038 5.32256 5.34199C4.8645 5.19361 4.77418 5.05812 4.62579 4.87748C3.8645 3.94199 4.33547 2.72264 5.41934 2.34199V1.54199H6.19353V1.54844Z" fill="#27A14A"/>
<path d="M19.3549 18.5807H15.4839V19.3549H19.3549V18.5807Z" fill="#27A14A"/>
</g>
<defs>
<clipPath id="clip0_153_1614">
<rect width="24" height="24" fill="white"/>
</clipPath>
</defs>
</svg>
