<svg width="24" height="24" viewBox="0 0 24 24" fill="none" xmlns="http://www.w3.org/2000/svg">
<path d="M12.75 0C13.0937 0.1125 13.4 0.25 13.6312 0.55C14.0562 1.1 14.2 2.4875 14.6687 2.8375C15.1375 3.1875 15.4437 3.15 15.7312 3.275C16.0187 3.4 16.4 3.725 16.8187 3.625C17.7437 3.4 18.4187 2.43125 19.5562 2.78125C19.975 2.90625 21 3.9125 21.1625 4.3125C21.5375 5.23125 20.9625 5.8375 20.6125 6.625C20.4937 6.9 20.35 7.1125 20.4 7.41875C20.45 7.725 20.975 8.975 21.0687 9.14375C21.1625 9.3125 21.2687 9.4125 21.3875 9.48125C21.8312 9.71875 22.5812 9.83125 23.075 10.0438C23.5687 10.2563 23.85 10.6313 24 11.1563V12.6563C23.7437 13.8875 22.4687 13.875 21.5687 14.325C20.6687 14.775 20.9625 15.1438 20.7312 15.6875C20.5 16.2313 20.2625 16.3438 20.3812 16.8188C20.6062 17.7 21.5187 18.45 21.2062 19.4438C20.8937 20.4375 20.1125 20.9375 19.6937 21.1188C18.6437 21.5625 17.8937 20.7375 16.975 20.4188C16.7062 20.325 16.6375 20.3375 16.3687 20.4188C16.1 20.5 15.1875 20.8563 14.8562 21.0188C14.6812 21.1063 14.5875 21.1938 14.5 21.3625C14.0125 22.3 14.0625 23.6938 12.8062 24.0063H11.2562C9.97498 23.7438 10.075 22.3688 9.61248 21.4563C9.14998 20.5438 8.85623 20.9688 8.41248 20.7813C7.96873 20.5938 7.68123 20.2313 7.08748 20.425C6.18748 20.7125 5.39373 21.5938 4.36873 21.125C3.34373 20.6563 3.13123 20.1688 2.96873 19.9C2.68748 19.425 2.65623 19 2.84373 18.4813C3.00623 18.0438 3.63123 17.1313 3.61873 16.725C3.60623 16.3188 3.04998 15.1875 2.91873 14.9375C2.61873 14.3563 1.61248 14.2313 1.02498 13.975C0.468726 13.7313 0.187476 13.3938 0.00622559 12.8125V11.2625C0.268726 10.0188 1.56873 10.0688 2.48748 9.64375C3.03123 9.39375 3.00623 8.94375 3.21248 8.45C3.41873 7.95625 3.77498 7.675 3.56248 7.06875C3.25623 6.19375 2.46873 5.48125 2.77498 4.45625C2.91248 3.99375 3.90623 3.025 4.35623 2.85C5.28123 2.49375 5.83123 3.05 6.61873 3.39375C7.40623 3.7375 7.10623 3.65625 7.41248 3.60625C7.71873 3.55625 8.89997 3.0625 9.10623 2.95625C9.31248 2.85 9.39998 2.75625 9.47498 2.61875C9.83748 1.94375 9.87498 0.8875 10.5 0.3625C11.125 -0.1625 10.9562 0.10625 11.2 0.00625H12.75V0ZM11.475 0.7125C11.2812 0.74375 11.0125 0.9125 10.9062 1.08125C10.375 1.89375 10.5812 3.05625 9.49372 3.55625C8.40623 4.05625 7.82498 4.2375 7.57498 4.2625C6.58123 4.3625 5.55623 3.375 4.81248 3.46875C4.69373 3.48125 4.58123 3.5375 4.48123 3.60625C4.38123 3.675 3.69998 4.35 3.61248 4.475C3.11873 5.18125 4.12498 6.20625 4.29373 6.93125C4.46248 7.65625 4.19998 7.91875 3.96248 8.53125C3.72498 9.14375 3.59998 9.9375 2.81248 10.2875C2.02498 10.6375 1.14998 10.7125 0.918726 11.0625C0.687476 11.4125 0.762476 12.2625 0.799976 12.5813C0.837476 12.9 1.04998 13.125 1.33748 13.2625C2.26248 13.7 3.14998 13.6 3.63748 14.6688C3.83748 15.1063 4.35623 16.2938 4.36248 16.7125C4.36873 17.3875 3.78748 18.0563 3.56248 18.6688C3.33748 19.2813 3.50623 19.4313 3.89998 19.8C4.29373 20.1688 4.61248 20.4313 4.82498 20.4688C5.41248 20.5688 6.29373 19.8438 6.91873 19.675C7.75623 19.45 7.99998 19.8 8.68748 20.0813C9.19998 20.2938 9.74372 20.3375 10.1187 20.8063C10.4937 21.275 10.6687 22.775 11.125 23.0813C11.3687 23.2438 12.3312 23.2375 12.6437 23.2C13.4937 23.1063 13.5625 21.55 13.9687 20.9188C14.375 20.2875 14.9937 20.2563 15.5687 20.0375C16.25 19.7813 16.5187 19.4688 17.3187 19.7438C17.8625 19.9313 18.7625 20.5938 19.2937 20.525C19.825 20.4563 19.4437 20.4875 19.5062 20.4563C19.65 20.3938 20.425 19.55 20.5125 19.4C20.6 19.25 20.5937 19.1438 20.5875 19.0063C20.575 18.5813 19.9437 17.6688 19.7875 17.175C19.525 16.3375 19.8375 16.1313 20.1187 15.45C20.4 14.7688 20.5125 14.0625 21.3937 13.6313C21.8 13.4313 22.8562 13.2188 23.1125 12.9125C23.3687 12.6063 23.375 11.3625 23.2 11.0438C22.7875 10.3063 21.05 10.55 20.4937 9.4875C20.35 9.2125 19.775 7.69375 19.7437 7.425C19.65 6.6125 20.2812 5.91875 20.5437 5.1875C20.675 4.83125 20.6375 4.61875 20.4125 4.31875C20.1437 3.95625 19.5375 3.35625 19.0625 3.38125C18.0937 3.43125 17.4812 4.5875 16.1937 4.175C15.8687 4.06875 14.5312 3.51875 14.3 3.35C13.5312 2.7625 13.5375 1.16875 12.9812 0.825C12.725 0.66875 11.775 0.66875 11.4687 0.71875L11.475 0.7125Z" fill="#27A14A"/>
<path d="M19.05 12C19.05 15.8937 15.8937 19.05 12 19.05C8.1062 19.05 4.94995 15.8937 4.94995 12C4.94995 8.1062 8.1062 4.94995 12 4.94995C15.8937 4.94995 19.05 8.1062 19.05 12ZM11.625 5.7187C10.7687 5.7312 9.9687 6.0187 9.18745 6.3312C9.14995 6.37495 9.8312 7.16245 9.36245 7.37495C8.8937 7.58745 8.7312 7.0437 8.5062 6.7562C7.8062 7.2187 7.21245 7.81245 6.74995 8.51245C7.0312 8.73745 7.53745 8.82495 7.3937 9.29995C7.24995 9.77495 6.5687 9.34995 6.32495 9.1937C6.01245 9.97495 5.7312 10.775 5.71245 11.6312H6.3937C6.42495 11.6312 6.6062 11.775 6.62495 11.8187C6.71245 12.0125 6.5937 12.3812 6.3937 12.3812H5.71245C5.73745 13.2375 6.0062 14.0375 6.32495 14.8187C6.37495 14.8562 7.26245 14.075 7.4312 14.775C7.59995 15.475 6.7562 15.4125 6.74995 15.5C7.21245 16.1937 7.81245 16.7937 8.5062 17.2562C8.74995 16.9625 8.84995 16.4 9.36245 16.6375C9.87495 16.875 9.14995 17.6312 9.18745 17.6812C9.9687 17.9937 10.7687 18.2687 11.625 18.2937V17.6125C11.625 17.5812 11.7687 17.4 11.8125 17.3812C12.0062 17.2937 12.375 17.4125 12.375 17.6125V18.2937C13.2312 18.2687 14.0312 18 14.8125 17.6812C14.8562 17.6312 14.0562 16.7625 14.7625 16.575C15.4687 16.3875 15.2812 17.0375 15.4875 17.2562C16.1875 16.7937 16.7812 16.2 17.2437 15.5C16.95 15.2562 16.3875 15.1562 16.625 14.6437C16.8625 14.1312 17.6187 14.8562 17.6687 14.8187C17.9875 14.0375 18.2562 13.2375 18.2812 12.3812H17.6C17.5687 12.3812 17.3875 12.2375 17.3687 12.1937C17.2812 12 17.4 11.6312 17.6 11.6312H18.2812C18.2562 10.775 17.9875 9.97495 17.6687 9.1937C17.6187 9.1562 16.7687 9.91245 16.5625 9.2437C16.3562 8.57495 17.2312 8.6312 17.2437 8.5187C16.7812 7.8187 16.1875 7.22495 15.4875 6.76245C15.2625 7.04995 15.125 7.6062 14.6312 7.3812C14.1375 7.1562 14.8437 6.38745 14.8062 6.33745C14.025 6.0187 13.225 5.74995 12.3687 5.72495V6.4062C12.3687 6.43745 12.225 6.6187 12.1812 6.63745C11.9875 6.72495 11.6187 6.6062 11.6187 6.4062V5.72495L11.625 5.7187Z" fill="#27A14A"/>
<path d="M15.2187 8.30626C15.5625 8.23126 15.8 8.52501 15.6625 8.85001L13.1437 11.3938C13.0937 11.5063 13.2062 11.65 13.2187 11.7875C13.3125 12.8875 12.4375 13.4688 11.425 13.1313C11.1437 13.3188 10.7687 14 10.3812 13.6875C9.92497 13.3125 10.6625 12.8563 10.8687 12.575C10.5312 11.5625 11.1125 10.6875 12.2125 10.7813C13.3125 10.875 12.4937 10.9063 12.6062 10.8563L15.0437 8.41876C15.0937 8.36876 15.15 8.32501 15.2187 8.31251V8.30626ZM12.0937 11.5313C11.7312 11.475 11.475 11.7375 11.5375 12.0875C11.7875 12.075 11.8937 12.2563 11.9375 12.4688C12.2875 12.5063 12.5312 12.25 12.4687 11.9063C12.2562 11.925 12.075 11.75 12.0937 11.5313Z" fill="#27A14A"/>
</svg>
