<svg width="28" height="24" viewBox="0 0 28 24" fill="none" xmlns="http://www.w3.org/2000/svg">
<g clip-path="url(#clip0_153_1560)">
<path d="M0.906627 14.1755C1.00345 13.4707 1.61961 12.8876 2.15655 12.4786C1.78685 12.1915 1.11788 12.1306 1.43476 11.504L3.5385 10.0595L3.60892 9.92898L3.10719 8.78902C2.82552 8.60628 2.54385 8.59758 2.27978 8.36262C1.75164 7.88402 1.71643 6.99642 2.24457 6.5004C2.55265 6.21324 2.86953 6.36987 2.7375 5.79555C1.61081 5.49968 -0.290481 4.59468 0.123226 3.16755C0.536932 1.74043 2.41181 2.38438 3.27444 2.4627C3.54731 1.46197 3.5385 -0.31323 5.0701 0.0696567C6.60169 0.452543 6.6545 0.835429 7.20024 0.835429C7.74598 0.835429 8.93429 0.0783586 9.62087 4.10159e-05C10.8884 -0.130488 10.8972 1.56639 11.1437 2.38438C12.1383 2.38438 14.4797 2.07111 14.3653 3.65486C14.2861 4.74261 12.8601 5.36915 11.9975 5.76074C11.9359 6.35247 12.4112 6.30896 12.6841 6.70055C12.9569 7.09214 12.9745 7.50113 12.7985 7.91882C12.6224 8.33652 12.5608 8.20599 12.4552 8.36262C12.3496 8.51926 12.3496 8.41483 12.4552 8.49315C13.978 8.7194 15.448 9.28503 16.6979 10.1726C18.0534 11.1298 18.9513 12.4961 20.0427 13.7143L25.7378 13.7665C26.7325 13.9754 27.5951 14.7499 27.8415 15.7332C28.088 16.7165 28.0792 19.4924 27.8415 20.0668C27.6039 20.6411 27.5511 20.3974 27.4454 20.5889C27.2782 20.8934 27.0934 21.9551 26.8645 22.103C26.5212 22.3206 24.8136 22.0856 24.3118 22.1726L23.6077 23.0863H26.7413C27.0053 23.0863 27.3662 23.913 26.4156 24H0.739384C-0.369701 24 -0.158447 22.8601 0.906627 23.0863V14.1755ZM4.01382 3.42861C5.4838 3.98554 7.09462 4.10737 8.64381 3.87241C10.193 3.63746 10.4307 3.49823 10.4571 3.34159C10.3162 3.02832 9.97296 0.957256 9.7705 0.896343C9.10153 1.02687 8.45897 1.45327 7.8164 1.62731C6.68091 1.94058 5.75667 1.17481 4.6916 0.887641L4.59477 0.913747L4.01382 3.41991V3.42861ZM3.08079 3.30679C2.39421 3.22847 -0.00880828 3.00222 1.37315 4.18568C3.50329 6.00439 10.4219 5.87386 12.7457 4.41193C15.0695 2.95001 13.7931 3.61135 13.3002 3.359C12.8073 3.10664 11.5222 3.17626 11.4077 3.31549C11.6542 4.08126 10.994 4.18568 10.4043 4.37713C8.23011 5.07328 5.55422 5.08198 3.44168 4.17698C2.98396 3.97684 2.93115 3.8376 3.08959 3.31549L3.08079 3.30679ZM11.1349 5.98699C8.67022 6.55262 6.08236 6.57872 3.60892 6.0566C3.58251 6.30896 3.67054 6.64834 3.5385 6.86589C3.40647 7.08344 2.71109 7.02252 2.7463 7.45762C2.78151 7.89272 3.49449 7.66647 3.74096 7.91882C3.98742 8.17118 3.99622 8.67589 4.10185 8.92825C4.62998 10.2074 6.2408 11.6172 7.71077 11.3213C8.87267 11.095 9.99936 10.1813 10.5275 9.1458C11.0556 8.11027 10.8708 8.04065 10.994 7.91012C11.2581 7.63166 12.0503 8.02325 11.9887 7.39671C11.9271 6.77016 11.619 7.10084 11.3989 6.99642C11.0556 6.83108 11.1349 6.29156 11.1349 5.98699ZM18.2031 12.966C16.6979 10.7644 14.11 9.36335 11.4165 9.31984L11.082 9.98989C11.3637 10.3815 13.2122 11.2343 13.353 11.5301C13.6347 12.148 12.7721 12.3133 12.3936 12.5396C12.8513 12.8702 13.133 13.2705 13.4234 13.7404L15.2983 13.723C15.5096 13.3314 15.668 11.7651 15.9585 11.5649C16.4778 11.2082 16.8915 11.9478 16.5658 12.4177L18.2031 12.966ZM2.7551 11.7912L7.20905 13.9406L11.9975 11.6955L10.4571 10.7557C9.7617 11.4257 8.71423 12.1132 7.71958 12.2263C6.32882 12.3916 5.11411 11.6085 4.17227 10.6773C3.83778 11.0428 3.19521 11.2604 2.85193 11.591C2.50864 11.9217 2.72869 11.6781 2.7551 11.7825V11.7912ZM1.83086 23.0863H6.68091L6.77773 22.9906V14.7673L3.23923 12.9834C2.82552 13.1313 2.32379 13.3924 2.06853 13.7578C2.03332 13.8101 1.83086 14.1581 1.83086 14.1755V23.0863ZM7.64036 23.0863H12.5608L12.6576 22.9906V14.5062C12.6576 14.3757 12.4904 13.9232 12.3936 13.7839C12.2527 13.5838 11.6102 13.0356 11.3725 13.0356L7.64036 14.7238V23.0776V23.0863ZM16.2842 13.7491H17.4109L16.3898 13.3575C16.2578 13.3924 16.2842 13.636 16.2842 13.7491ZM18.9249 14.6019H13.5115V19.9536H16.2842C16.3282 18.2655 17.4285 16.8122 18.9249 16.0726V14.6019ZM26.3188 15.0544C26.2395 14.8543 25.5882 14.6019 25.4297 14.6019H19.8491V16.4641C19.8491 16.7426 19.0833 17.0037 18.8808 17.1342C17.8598 17.7781 17.3316 18.7876 17.1468 19.9536H17.5957C18.0358 17.3953 20.7733 16.0116 23.0795 17.3779C25.3857 18.7441 24.6551 18.9094 24.7343 19.9536C25.2009 19.8753 26.5388 20.0929 26.8733 19.884C27.2078 19.6752 27.0493 19.7013 27.0493 19.6665V17.2821H25.4297C25.3417 17.2821 24.9632 17.0646 24.8664 16.9863C24.3999 16.6295 24.2326 15.9855 24.3382 15.4199C24.4439 14.8543 24.5935 15.0631 24.6375 15.0631H26.3188V15.0544ZM27.0493 16.3597C27.0845 16.2292 26.8469 15.9681 26.7501 15.9681H25.2625V16.0639C25.2713 16.1074 25.4649 16.3597 25.4913 16.3597H27.0405H27.0493ZM23.8893 20.4061C23.8893 18.9268 22.6834 17.7346 21.187 17.7346C19.6907 17.7346 18.4847 18.9268 18.4847 20.4061C18.4847 21.8855 19.6907 23.0776 21.187 23.0776C22.6834 23.0776 23.8893 21.8855 23.8893 20.4061ZM17.6045 20.8673H13.5115C13.5115 21.024 13.4587 21.2154 13.6083 21.3198H17.6661L17.5957 20.8673H17.6045ZM26.3892 20.8673H24.7343L24.6639 21.3198H26.2131C26.3364 21.2067 26.3804 21.024 26.3804 20.8673H26.3892ZM18.7928 23.0863L18.0358 22.1726H13.5115V23.0863H18.7928Z" fill="#27A14A"/>
<path d="M18.4847 3.02833C18.4847 3.768 17.8774 4.36844 17.1292 4.36844C16.381 4.36844 15.7737 3.768 15.7737 3.02833C15.7737 2.28867 16.381 1.68823 17.1292 1.68823C17.8774 1.68823 18.4847 2.28867 18.4847 3.02833ZM17.5781 3.02833C17.5781 2.78468 17.3757 2.58453 17.1292 2.58453C16.8827 2.58453 16.6803 2.78468 16.6803 3.02833C16.6803 3.27199 16.8827 3.47213 17.1292 3.47213C17.3757 3.47213 17.5781 3.27199 17.5781 3.02833Z" fill="#27A14A"/>
<path d="M18.4143 7.98839C18.071 7.64901 18.476 7.29223 18.7224 7.04858C18.7488 6.90064 17.9566 6.48295 18.4583 6.07396C18.9601 5.66497 19.1185 6.12617 19.365 6.36982C19.497 6.39593 19.9459 5.63016 20.3508 6.10877C20.7557 6.58737 20.298 6.76141 20.0516 7.00507C20.0251 7.17041 20.7381 7.45757 20.3508 7.94488C19.9371 8.467 19.5234 7.65772 19.365 7.68382C19.1185 7.92748 18.7576 8.32777 18.4143 7.98839Z" fill="#27A14A"/>
<path d="M22.3137 5.08199C22.5908 5.08199 22.8155 4.85992 22.8155 4.58598C22.8155 4.31204 22.5908 4.08997 22.3137 4.08997C22.0366 4.08997 21.812 4.31204 21.812 4.58598C21.812 4.85992 22.0366 5.08199 22.3137 5.08199Z" fill="#27A14A"/>
<path d="M9.02233 18.1784C9.27025 18.1784 9.47124 17.9797 9.47124 17.7346C9.47124 17.4895 9.27025 17.2908 9.02233 17.2908C8.7744 17.2908 8.57341 17.4895 8.57341 17.7346C8.57341 17.9797 8.7744 18.1784 9.02233 18.1784Z" fill="#27A14A"/>
<path d="M9.02233 19.9536C9.27025 19.9536 9.47124 19.7549 9.47124 19.5098C9.47124 19.2647 9.27025 19.066 9.02233 19.066C8.7744 19.066 8.57341 19.2647 8.57341 19.5098C8.57341 19.7549 8.7744 19.9536 9.02233 19.9536Z" fill="#27A14A"/>
<path d="M9.01352 16.3944C9.26145 16.3944 9.46244 16.1957 9.46244 15.9506C9.46244 15.7055 9.26145 15.5068 9.01352 15.5068C8.76559 15.5068 8.56461 15.7055 8.56461 15.9506C8.56461 16.1957 8.76559 16.3944 9.01352 16.3944Z" fill="#27A14A"/>
<path d="M9.01352 21.7375C9.26145 21.7375 9.46244 21.5388 9.46244 21.2937C9.46244 21.0485 9.26145 20.8499 9.01352 20.8499C8.76559 20.8499 8.56461 21.0485 8.56461 21.2937C8.56461 21.5388 8.76559 21.7375 9.01352 21.7375Z" fill="#27A14A"/>
<path d="M5.86231 8.37124C6.11024 8.37124 6.31122 8.17255 6.31122 7.92744C6.31122 7.68234 6.11024 7.48364 5.86231 7.48364C5.61438 7.48364 5.41339 7.68234 5.41339 7.92744C5.41339 8.17255 5.61438 8.37124 5.86231 8.37124Z" fill="#27A14A"/>
<path d="M9.02233 8.37124C9.27025 8.37124 9.47124 8.17255 9.47124 7.92744C9.47124 7.68234 9.27025 7.48364 9.02233 7.48364C8.7744 7.48364 8.57341 7.68234 8.57341 7.92744C8.57341 8.17255 8.7744 8.37124 9.02233 8.37124Z" fill="#27A14A"/>
<path d="M23.4404 20.406C23.4404 21.633 22.4282 22.6337 21.187 22.6337C19.9459 22.6337 18.9337 21.633 18.9337 20.406C18.9337 19.1791 19.9459 18.1783 21.187 18.1783C22.4282 18.1783 23.4404 19.1791 23.4404 20.406ZM22.5426 20.406C22.5426 19.6664 21.9352 19.0746 21.1959 19.0746C20.4565 19.0746 19.8491 19.6751 19.8491 20.406C19.8491 21.137 20.4565 21.7374 21.1959 21.7374C21.9352 21.7374 22.5426 21.137 22.5426 20.406Z" fill="#27A14A"/>
</g>
<defs>
<clipPath id="clip0_153_1560">
<rect width="28" height="24" fill="white"/>
</clipPath>
</defs>
</svg>
