<svg width="199" height="40" viewBox="0 0 199 40" fill="none" xmlns="http://www.w3.org/2000/svg">
<path d="M20 40C31.0457 40 40 31.0457 40 20C40 8.9543 31.0457 0 20 0C8.95431 0 0 8.9543 0 20C0 31.0457 8.95431 40 20 40Z" fill="#34E0A1"/>
<path d="M32.3514 16.0968L34.7657 13.4703H29.414C26.6404 11.5827 23.363 10.5732 20.0081 10.5732C16.6531 10.5732 13.3758 11.5827 10.6022 13.4703H5.23645L7.65076 16.0968C6.93602 16.7521 6.35746 17.5418 5.94816 18.4208C5.53886 19.2998 5.30685 20.2509 5.26541 21.2197C5.22396 22.1884 5.37389 23.1559 5.70662 24.0667C6.03935 24.9774 6.54836 25.8137 7.20453 26.5276C7.86069 27.2415 8.65116 27.819 9.5307 28.2272C10.4103 28.6354 11.3616 28.8662 12.3305 28.9064C13.2993 28.9466 14.2665 28.7955 15.1768 28.4616C16.0872 28.1277 16.9228 27.6176 17.6359 26.9605L20.0013 29.5339L22.365 26.9622C23.7271 28.2275 25.5182 28.9296 27.3773 28.927C31.4519 28.927 34.758 25.6239 34.758 21.5493C34.7593 20.5229 34.5458 19.5075 34.1313 18.5685C33.7169 17.6295 33.1106 16.7876 32.3514 16.0968ZM12.6218 26.5421C11.6344 26.5421 10.6691 26.2492 9.848 25.7006C9.02695 25.152 8.38701 24.3723 8.00912 23.4599C7.63123 22.5476 7.53235 21.5438 7.725 20.5753C7.91765 19.6067 8.39316 18.7171 9.09141 18.0189C9.78967 17.3206 10.6793 16.8451 11.6478 16.6525C12.6163 16.4598 13.6202 16.5587 14.5325 16.9366C15.4448 17.3145 16.2246 17.9544 16.7732 18.7755C17.3218 19.5965 17.6146 20.5618 17.6146 21.5493C17.6146 22.8735 17.0886 24.1434 16.1523 25.0797C15.2159 26.016 13.946 26.5421 12.6218 26.5421ZM20.0013 21.4055C20.0013 18.1198 17.6112 15.3007 14.4595 14.095C16.2153 13.3636 18.0985 12.987 20.0006 12.987C21.9027 12.987 23.786 13.3636 25.5418 14.095C22.3905 15.3011 20.0013 18.1203 20.0013 21.4055ZM27.3773 26.5421C26.3898 26.5421 25.4245 26.2492 24.6035 25.7006C23.7824 25.152 23.1425 24.3723 22.7646 23.4599C22.3867 22.5476 22.2878 21.5438 22.4805 20.5753C22.6731 19.6067 23.1486 18.7171 23.8469 18.0189C24.5451 17.3206 25.4348 16.8451 26.4033 16.6525C27.3718 16.4598 28.3756 16.5587 29.288 16.9366C30.2003 17.3145 30.98 17.9544 31.5286 18.7755C32.0772 19.5965 32.3701 20.5618 32.3701 21.5493C32.3701 22.8735 31.844 24.1434 30.9077 25.0797C29.9714 26.016 28.7015 26.5421 27.3773 26.5421ZM27.3773 18.9321C26.8596 18.9321 26.3535 19.0857 25.923 19.3733C25.4925 19.6609 25.157 20.0698 24.9589 20.5481C24.7608 21.0264 24.709 21.5528 24.81 22.0605C24.9111 22.5683 25.1604 23.0347 25.5265 23.4008C25.8927 23.7668 26.3591 24.0161 26.8669 24.1171C27.3747 24.218 27.901 24.1661 28.3793 23.9679C28.8576 23.7697 29.2664 23.4342 29.554 23.0037C29.8415 22.5731 29.995 22.067 29.9949 21.5493C29.9949 21.2056 29.9272 20.8652 29.7956 20.5476C29.6641 20.2301 29.4713 19.9416 29.2282 19.6985C28.9851 19.4555 28.6966 19.2627 28.379 19.1312C28.0614 18.9997 27.721 18.9321 27.3773 18.9321ZM15.2394 21.5493C15.2395 22.067 15.0861 22.5731 14.7985 23.0037C14.5109 23.4342 14.1021 23.7697 13.6238 23.9679C13.1455 24.1661 12.6192 24.218 12.1114 24.1171C11.6036 24.0161 11.1372 23.7668 10.7711 23.4008C10.405 23.0347 10.1556 22.5683 10.0546 22.0605C9.95354 21.5528 10.0053 21.0264 10.2035 20.5481C10.4016 20.0698 10.7371 19.6609 11.1675 19.3733C11.598 19.0857 12.1041 18.9321 12.6218 18.9321C13.316 18.9321 13.9817 19.2078 14.4726 19.6987C14.9635 20.1895 15.2393 20.8551 15.2394 21.5493Z" fill="#434343"/>
<path d="M197.924 26.5022C197.712 26.5022 197.504 26.5649 197.327 26.6824C197.15 26.8 197.012 26.967 196.931 27.1625C196.849 27.3579 196.828 27.573 196.87 27.7805C196.911 27.9879 197.013 28.1785 197.164 28.3281C197.314 28.4777 197.506 28.5796 197.715 28.6209C197.923 28.6621 198.14 28.641 198.336 28.56C198.533 28.479 198.701 28.3419 198.819 28.166C198.937 27.9901 199 27.7833 199 27.5718C199 27.2882 198.886 27.0162 198.685 26.8157C198.483 26.6151 198.21 26.5024 197.924 26.5022ZM197.924 28.4731C197.745 28.4731 197.57 28.4203 197.421 28.3212C197.272 28.2222 197.156 28.0814 197.087 27.9167C197.018 27.752 197.001 27.5708 197.036 27.3959C197.07 27.2211 197.157 27.0605 197.284 26.9344C197.41 26.8084 197.572 26.7226 197.748 26.6878C197.923 26.653 198.106 26.6708 198.271 26.7391C198.437 26.8073 198.578 26.9228 198.678 27.071C198.778 27.2193 198.831 27.3935 198.831 27.5718C198.83 27.8106 198.734 28.0395 198.565 28.2084C198.395 28.3773 198.165 28.4724 197.924 28.4731ZM198.273 27.3901C198.273 27.1952 198.133 27.0798 197.931 27.0798H197.585V28.0534H197.754V27.7001H197.937L198.115 28.0534H198.297L198.101 27.6661C198.155 27.6436 198.2 27.6049 198.231 27.5555C198.262 27.506 198.277 27.4483 198.273 27.3901ZM197.922 27.5511H197.756V27.2287H197.922C198.036 27.2287 198.104 27.2855 198.104 27.3901C198.104 27.4947 198.036 27.5511 197.922 27.5511ZM68.3038 15.6763V13.0894H64.3158V28.4826H68.3038V19.2528C68.3038 17.5805 69.3859 16.7627 71.0648 16.7627H73.2471V13.0915H71.3821C69.923 13.0894 68.654 13.8465 68.3038 15.6763ZM76.9832 7C75.6194 7 74.5729 8.07264 74.5729 9.42894C74.5729 10.0648 74.8268 10.6746 75.279 11.1243C75.7311 11.5739 76.3443 11.8265 76.9837 11.8265C77.6231 11.8265 78.2363 11.5739 78.6884 11.1243C79.1405 10.6746 79.3945 10.0648 79.3945 9.42894C79.3958 8.07264 78.3488 7 76.9845 7H76.9832ZM74.9923 28.4826H78.9712V13.0894H74.9953L74.9923 28.4826ZM97.9297 20.786C97.9297 25.1803 94.3477 28.7426 89.929 28.7426C88.2341 28.7494 86.5843 28.1999 85.2355 27.1792V33H81.2565V13.0894H85.2355V14.391C86.5854 13.3704 88.2363 12.8214 89.932 12.8294C94.3507 12.8294 97.9328 16.3917 97.9328 20.786H97.9297ZM93.9248 20.786C93.9248 19.9311 93.6699 19.0953 93.1923 18.3845C92.7147 17.6737 92.0358 17.1197 91.2416 16.7925C90.4474 16.4654 89.5734 16.3798 88.7303 16.5466C87.8872 16.7134 87.1127 17.1252 86.5049 17.7297C85.897 18.3343 85.4831 19.1045 85.3154 19.943C85.1478 20.7815 85.2339 21.6506 85.563 22.4404C85.892 23.2302 86.4492 23.9053 87.164 24.3802C87.8788 24.8551 88.7192 25.1085 89.5788 25.1084C90.1498 25.1087 90.7152 24.9971 91.2427 24.78C91.7703 24.5629 92.2497 24.2445 92.6535 23.8431C93.0573 23.4417 93.3776 22.9651 93.5961 22.4406C93.8146 21.916 93.927 21.3538 93.927 20.786H93.9248ZM167.105 19.4357L164.783 18.8021C163.256 18.407 162.662 17.9412 162.662 17.138C162.662 16.3551 163.499 15.8084 164.697 15.8084C165.837 15.8084 166.731 16.5514 166.731 17.4996V17.5857H170.399V17.4996C170.399 14.7061 168.108 12.8294 164.697 12.8294C161.319 12.8294 158.867 14.7048 158.867 17.2887C158.867 19.2993 160.209 20.8135 162.546 21.4432L164.77 22.0459C166.458 22.5107 167.088 23.0273 167.088 23.9514C167.088 24.9272 166.179 25.5827 164.829 25.5827C163.42 25.5827 162.473 24.6969 162.473 23.3789V23.2928H158.578V23.3789C158.578 26.537 161.134 28.7426 164.795 28.7426C168.322 28.7426 170.883 26.5904 170.883 23.6204C170.883 22.1677 170.226 20.263 167.108 19.4357H167.105ZM112.05 13.0894H116.029V28.4826H112.05V27.1792C110.7 28.1999 109.049 28.7489 107.353 28.7408C102.934 28.7408 99.352 25.1786 99.352 20.7843C99.352 16.3899 102.934 12.8277 107.353 12.8277C109.049 12.8196 110.7 13.3686 112.05 14.3893V13.0894ZM112.05 20.7864C112.05 19.9315 111.795 19.0959 111.317 18.3851C110.839 17.6743 110.161 17.1204 109.366 16.7933C108.572 16.4662 107.698 16.3807 106.855 16.5475C106.012 16.7143 105.238 17.126 104.63 17.7306C104.022 18.3351 103.608 19.1053 103.44 19.9437C103.273 20.7822 103.359 21.6513 103.688 22.4411C104.017 23.2309 104.574 23.9059 105.289 24.3808C106.003 24.8558 106.844 25.1093 107.703 25.1093C108.274 25.1095 108.84 24.9979 109.368 24.7807C109.895 24.5636 110.375 24.2451 110.779 23.8436C111.182 23.442 111.503 22.9653 111.721 22.4406C111.94 21.9158 112.052 21.3535 112.052 20.7855L112.05 20.7864ZM130.401 7.61036H134.38V28.4826H130.401V27.1792C129.051 28.1999 127.4 28.7489 125.704 28.7408C121.286 28.7408 117.704 25.1786 117.704 20.7843C117.704 16.3899 121.286 12.8277 125.704 12.8277C127.4 12.8196 129.051 13.3686 130.401 14.3893V7.61036ZM130.401 20.786C130.401 19.9311 130.147 19.0954 129.669 18.3846C129.191 17.6737 128.513 17.1197 127.718 16.7926C126.924 16.4654 126.05 16.3798 125.207 16.5466C124.364 16.7134 123.589 17.1251 122.982 17.7296C122.374 18.3341 121.96 19.1042 121.792 19.9427C121.624 20.7812 121.71 21.6503 122.039 22.4401C122.368 23.2299 122.926 23.905 123.64 24.3799C124.355 24.8549 125.195 25.1084 126.055 25.1084C126.626 25.1085 127.191 24.9968 127.719 24.7796C128.246 24.5624 128.725 24.2441 129.129 23.8427C129.532 23.4413 129.853 22.9647 130.071 22.4403C130.29 21.9158 130.402 21.3537 130.402 20.786H130.401ZM152.861 28.4826H156.84V13.0894H152.861V28.4826ZM154.852 7C153.487 7 152.441 8.07264 152.441 9.42894C152.441 10.0648 152.695 10.6746 153.147 11.1243C153.599 11.5739 154.212 11.8265 154.852 11.8265C155.491 11.8265 156.104 11.5739 156.556 11.1243C157.008 10.6746 157.262 10.0648 157.262 9.42894C157.262 8.07264 156.215 7 154.851 7H154.852ZM188.085 20.786C188.085 25.1803 184.503 28.7426 180.084 28.7426C175.666 28.7426 172.084 25.1803 172.084 20.786C172.084 16.3917 175.666 12.8294 180.084 12.8294C184.503 12.8294 188.084 16.3917 188.084 20.786H188.085ZM184.431 20.786C184.431 19.9311 184.176 19.0954 183.698 18.3846C183.221 17.6737 182.542 17.1197 181.748 16.7926C180.953 16.4654 180.08 16.3798 179.236 16.5466C178.393 16.7134 177.619 17.1251 177.011 17.7296C176.403 18.3341 175.989 19.1042 175.821 19.9427C175.654 20.7812 175.74 21.6503 176.069 22.4401C176.398 23.2299 176.955 23.905 177.67 24.3799C178.384 24.8549 179.225 25.1084 180.084 25.1084C180.655 25.1084 181.22 24.9966 181.748 24.7794C182.275 24.5621 182.754 24.2437 183.158 23.8424C183.561 23.441 183.881 22.9645 184.1 22.4401C184.318 21.9156 184.43 21.3536 184.43 20.786H184.431ZM66.27 7.61036H51V11.1399H56.6509V28.4813H60.616V11.1412H66.267L66.27 7.61036ZM143.479 24.2682L139.936 13.0894H135.756L141.066 28.4826H145.855L151.196 13.0894H147.016L143.479 24.2682ZM193.92 15.6771V13.0902H189.927V28.4834H193.917V19.2528C193.917 17.581 194.996 16.7605 196.677 16.7605H198.859V13.0894H196.994C195.534 13.0894 194.265 13.8465 193.916 15.6763L193.92 15.6771Z" fill="#434343"/>
</svg>
