<svg width="163" height="40" viewBox="0 0 163 40" fill="none" xmlns="http://www.w3.org/2000/svg">
<path d="M42.8287 14.1763H59.3124V17.2462H52.8206V34.5445H49.2618V17.2462H42.7961L42.8222 14.1763H42.8287ZM58.6084 19.8012H61.6523V22.6495H61.7044C61.8152 22.2454 62.0042 21.8608 62.278 21.4828C62.5517 21.1047 62.8776 20.7463 63.2817 20.453C63.6598 20.1271 64.0965 19.8794 64.5853 19.6904C65.0481 19.5013 65.5369 19.3905 66.0257 19.3905C66.5146 19.3905 66.6775 19.4166 66.8144 19.4166C66.9513 19.4427 67.1142 19.4688 67.2511 19.4688V22.5908C67.036 22.5387 66.7883 22.5126 66.5472 22.48C66.306 22.4539 66.0844 22.4279 65.8432 22.4279C65.3023 22.4279 64.7873 22.5387 64.292 22.7538C63.7966 22.9688 63.3925 23.2947 63.0145 23.7054C62.6625 24.1421 62.3627 24.657 62.1476 25.2827C61.9325 25.9084 61.8217 26.6384 61.8217 27.4531V34.4598H58.5628L58.6149 19.7947L58.6084 19.8012ZM82.177 34.5445H78.9702V32.4784H78.918C78.5139 33.241 77.9143 33.808 77.1256 34.2708C76.337 34.7335 75.5222 34.9486 74.7075 34.9486C72.7782 34.9486 71.3704 34.4859 70.497 33.5082C69.6301 32.5566 69.1934 31.0901 69.1934 29.1608V19.7947H72.4523V28.8349C72.4523 30.1385 72.6935 31.064 73.2149 31.5789C73.7038 32.1199 74.4077 32.3936 75.3071 32.3936C76.2066 32.3936 76.5586 32.2828 77.0148 32.0677C77.4776 31.8527 77.8556 31.5789 78.1294 31.2269C78.4292 30.875 78.6182 30.4383 78.7551 29.9494C78.892 29.4606 78.9441 28.9196 78.9441 28.3461V19.7947H82.203V34.538H82.177V34.5445ZM87.7171 29.8191C87.8279 30.7707 88.1799 31.4225 88.8056 31.8266C89.4313 32.2046 90.1939 32.4002 91.0608 32.4002C91.9276 32.4002 91.7126 32.3741 92.0906 32.3219C92.4686 32.2698 92.8532 32.1851 93.1791 32.0482C93.531 31.9113 93.8048 31.7223 94.0199 31.4486C94.235 31.1748 94.3458 30.8489 94.3197 30.4448C94.2936 30.0407 94.1567 29.6822 93.8569 29.415C93.5571 29.1478 93.2051 28.9522 92.7685 28.7632C92.3318 28.6003 91.8168 28.4634 91.2498 28.3591C90.6762 28.2483 90.1092 28.1179 89.5095 27.9811C88.9099 27.8442 88.3168 27.6812 87.7432 27.4922C87.1696 27.3032 86.6873 27.0555 86.2245 26.7036C85.7878 26.3777 85.4098 25.967 85.1686 25.4521C84.8949 24.9372 84.7645 24.3376 84.7645 23.5815C84.7645 22.8254 84.9536 22.115 85.3642 21.574C85.7422 21.033 86.2571 20.5963 86.8568 20.2705C87.4564 19.9446 88.1343 19.6969 88.8643 19.5665C89.5943 19.4297 90.3047 19.3775 90.9565 19.3775C91.6083 19.3775 92.4491 19.4557 93.1269 19.6187C93.8048 19.7816 94.4566 20.0228 94.9976 20.4073C95.5711 20.7593 96.0274 21.2481 96.3859 21.8217C96.7639 22.3953 96.9855 23.0992 97.0898 23.9139H93.694C93.531 23.1253 93.1791 22.6104 92.6381 22.3366C92.0645 22.0629 91.4453 21.9325 90.7088 21.9325C89.9723 21.9325 90.1939 21.9586 89.8941 21.9846C89.5682 22.0368 89.2944 22.0954 89.0011 22.1997C88.7274 22.3105 88.4862 22.4735 88.2972 22.6625C88.1082 22.8515 87.9974 23.1253 87.9974 23.4512C87.9974 23.7771 88.1343 24.1551 88.4015 24.4028C88.6752 24.6439 89.0272 24.8395 89.49 25.0285C89.9267 25.1914 90.4416 25.3283 91.0086 25.4326C91.5757 25.5369 92.1753 25.6737 92.775 25.8106C93.3746 25.9475 93.9417 26.1104 94.5152 26.2995C95.0888 26.4885 95.6037 26.7362 96.0339 27.0881C96.4706 27.414 96.8486 27.8246 97.1224 28.307C97.3961 28.7958 97.5265 29.4215 97.5265 30.1254C97.5265 30.8294 97.3375 31.7288 96.9268 32.3545C96.5227 32.9542 96.0013 33.4691 95.3756 33.8471C94.7499 34.2252 94.0199 34.4989 93.2573 34.6879C92.4686 34.8509 91.706 34.9617 90.95 34.9617C90.1939 34.9617 89.1576 34.8509 88.3689 34.6358C87.5802 34.4207 86.8763 34.0948 86.3027 33.6842C85.7292 33.2475 85.2729 32.7326 84.947 32.0808C84.6211 31.4551 84.4321 30.6925 84.4061 29.7995H87.691V29.8256H87.7171V29.8191ZM98.4455 19.8012H100.916V15.3495H104.175V19.7751H107.108V22.1932H104.175V30.0668C104.175 30.4187 104.201 30.6925 104.227 30.9597C104.253 31.2009 104.338 31.4225 104.416 31.5854C104.527 31.7484 104.69 31.8852 104.879 31.9635C105.094 32.0417 105.367 32.1003 105.745 32.1003C106.124 32.1003 106.208 32.1003 106.423 32.0743C106.638 32.0482 106.886 32.0221 107.101 31.9635V34.4859C106.749 34.538 106.397 34.5641 106.045 34.5967C105.693 34.6488 105.367 34.6488 104.989 34.6488C104.123 34.6488 103.438 34.5706 102.923 34.4077C102.408 34.2447 101.998 34.0035 101.704 33.7037C101.405 33.3778 101.216 32.9998 101.105 32.537C100.994 32.0743 100.942 31.5072 100.916 30.9076V22.2193H98.4455V19.749V19.8012ZM109.389 19.8012H112.459V21.8087H112.511C112.974 20.9418 113.599 20.3421 114.414 19.9641C115.229 19.5861 116.096 19.3905 117.073 19.3905C118.051 19.3905 119.244 19.5796 120.117 20.0163C120.984 20.4204 121.695 20.9679 122.262 21.6979C122.835 22.4018 123.265 23.2491 123.539 24.1942C123.813 25.1393 123.976 26.1756 123.976 27.238C123.976 28.3004 123.839 29.1934 123.598 30.1189C123.324 31.0444 122.946 31.8853 122.431 32.5892C121.916 33.2931 121.264 33.8667 120.45 34.2969C119.635 34.7335 118.709 34.9486 117.627 34.9486C116.546 34.9486 116.676 34.8965 116.213 34.8118C115.75 34.7335 115.288 34.5967 114.857 34.4077C114.421 34.2186 114.017 33.971 113.665 33.6711C113.287 33.3713 112.987 33.0194 112.739 32.6413H112.687V40H109.428V19.7947H109.402L109.389 19.8012ZM120.769 27.1859C120.769 26.5341 120.691 25.8823 120.495 25.2566C120.332 24.6309 120.059 24.0899 119.707 23.6011C119.355 23.1122 118.918 22.7342 118.429 22.4344C117.914 22.1346 117.315 21.9977 116.663 21.9977C115.307 21.9977 114.271 22.4604 113.567 23.4121C112.889 24.3637 112.537 25.6412 112.537 27.212C112.537 28.7828 112.615 28.6524 112.811 29.2781C113.006 29.9038 113.248 30.4448 113.626 30.9076C113.978 31.3703 114.414 31.7223 114.929 31.9961C115.444 32.2698 116.018 32.4002 116.695 32.4002C117.373 32.4002 118.051 32.2372 118.566 31.9374C119.081 31.6376 119.492 31.2335 119.844 30.7707C120.169 30.2819 120.417 29.7409 120.547 29.1152C120.684 28.4634 120.763 27.8377 120.763 27.1859H120.769ZM126.498 14.1763H129.757V17.2462H126.498V14.1763ZM126.498 19.8012H129.757V34.5445H126.498V19.8012ZM132.664 14.1763H135.923V34.5445H132.664V14.1763ZM145.863 34.9552C144.696 34.9552 143.634 34.7661 142.715 34.3555C141.789 33.9514 141.033 33.43 140.381 32.7521C139.756 32.0743 139.267 31.2335 138.941 30.2819C138.615 29.3303 138.426 28.2744 138.426 27.1598C138.426 26.0453 138.589 25.0154 138.941 24.0638C139.267 23.1122 139.756 22.2975 140.381 21.5936C141.007 20.9157 141.796 20.3747 142.715 19.9902C143.64 19.6122 144.696 19.3905 145.863 19.3905C147.029 19.3905 148.092 19.5796 149.011 19.9902C149.936 20.3682 150.693 20.9157 151.344 21.5936C151.97 22.2714 152.459 23.1122 152.785 24.0638C153.111 25.0154 153.3 26.0453 153.3 27.1598C153.3 28.2744 153.137 29.3303 152.785 30.2819C152.433 31.2335 151.97 32.0482 151.344 32.7521C150.719 33.43 149.93 33.971 149.011 34.3555C148.085 34.7335 147.056 34.9552 145.863 34.9552ZM145.863 32.3741C146.567 32.3741 147.219 32.2111 147.74 31.9113C148.281 31.6115 148.692 31.2074 149.044 30.7186C149.395 30.2297 149.643 29.6627 149.806 29.063C149.969 28.4373 150.054 27.8116 150.054 27.1598C150.054 26.508 149.976 25.9084 149.806 25.2892C149.643 24.6635 149.402 24.1225 149.044 23.6337C148.685 23.1448 148.255 22.7668 147.74 22.467C147.199 22.1671 146.573 22.0042 145.863 22.0042C145.152 22.0042 144.507 22.1671 143.986 22.467C143.445 22.7668 143.034 23.1709 142.682 23.6337C142.33 24.1225 142.082 24.6635 141.919 25.2892C141.757 25.9149 141.672 26.5406 141.672 27.1598C141.672 27.779 141.75 28.4373 141.919 29.063C142.082 29.6887 142.324 30.2297 142.682 30.7186C143.034 31.2074 143.471 31.6115 143.986 31.9113C144.527 32.2372 145.152 32.3741 145.863 32.3741ZM154.284 19.8012H156.754V15.3495H160.013V19.7751H162.946V22.1932H160.013V30.0668C160.013 30.4187 160.039 30.6925 160.065 30.9597C160.091 31.2009 160.176 31.4225 160.254 31.5854C160.365 31.7484 160.528 31.8852 160.717 31.9635C160.932 32.0417 161.206 32.1003 161.584 32.1003C161.962 32.1003 162.047 32.1003 162.262 32.0743C162.477 32.0482 162.724 32.0221 162.94 31.9635V34.4859C162.588 34.538 162.236 34.5641 161.877 34.5967C161.525 34.6488 161.199 34.6488 160.815 34.6488C159.948 34.6488 159.263 34.5706 158.749 34.4077C158.234 34.2447 157.823 34.0035 157.53 33.7037C157.23 33.3778 157.041 32.9998 156.93 32.537C156.819 32.0743 156.767 31.5072 156.741 30.9076V22.2193H154.271V19.749V19.8012H154.284Z" fill="#434343"/>
<path d="M39.0288 14.1763H24.116L19.5275 0L14.9128 14.1763L0 14.1502L12.058 22.9233L7.44338 37.0996L19.5014 28.3265L31.5594 37.0996L26.9708 22.9233L39.0288 14.1763Z" fill="#00B67A"/>
<path d="M28.0007 26.1235L26.9708 22.9167L19.5275 28.32L28.0007 26.117V26.1235Z" fill="#005128"/>
</svg>
